<svg xmlns="http://www.w3.org/2000/svg" viewBox="0 0 500 500" xmlns:v="https://vecta.io/nano"><style><![CDATA[.B{fill:#27debf}.C{opacity:.1}.D{fill:#455a64}.E{fill:#fff}.F{opacity:.5}.G{fill:#f28f8f}.H{opacity:.2}.I{opacity:.4}.J{fill:#263238}.K{fill:#ffa8a7}.L{fill:#37474f}.M{fill:#fafafa}.N{fill:#e0e0e0}.O{fill:#ffbda7}.P{fill:#f5f5f5}.Q{fill:#f0f0f0}]]></style><ellipse cx="250" cy="346.118" rx="215.279" ry="124.291" class="P"/><g class="N"><path d="M84.695 400.315l-37.539-21.609c-1.328-.767-1.328-2.01 0-2.777l241.553-139.408c1.328-.767 3.482-.767 4.81 0l37.539 21.609c1.328.767 1.328 2.01 0 2.777L89.505 400.315c-1.328.767-3.482.767-4.81 0zm162.533-80.925l18.741-10.82c.717-.414 1.879-.411 2.595.006l20.587 12.014c.715.418.714 1.092-.004 1.506l-18.741 10.82c-.717.414-1.879.411-2.595-.006l-20.587-12.014c-.715-.418-.714-1.092.004-1.506zm27.674-16.254l18.741-10.82c.717-.414 1.879-.411 2.594.006l20.587 12.014c.716.418.714 1.092-.003 1.506l-18.741 10.82c-.717.414-1.879.411-2.595-.006l-20.587-12.014c-.715-.418-.713-1.092.004-1.506zm27.246-15.733l18.741-10.82c.717-.414 1.879-.411 2.595.006l20.587 12.014c.715.418.714 1.092-.004 1.506l-18.741 10.82c-.717.414-1.879.411-2.595-.006l-20.587-12.014c-.715-.418-.713-1.092.004-1.506z"/><ellipse cx="209.9" cy="417.42" rx="61.323" ry="35.405"/><ellipse cx="392.37" cy="322.153" rx="51.585" ry="25.646"/></g><use href="#B" class="B"/><use href="#B" opacity=".15"/><path d="M77.121 342.258c.037.001.074-.001.112-.009a.54.54 0 0 0 .434-.634c-5.212-28.116-23.015-43.07-31.7-47.05-.271-.127-.594-.004-.72.269s-.005.597.269.722c8.508 3.898 25.953 18.584 31.084 46.258.047.257.269.438.521.444z" class="E"/><path d="M80.06 373.006l.011-2.408c.062-2.244.301-4.508.926-6.671.614-2.126 2.064-3.82 2.571-5.936.53-2.208-.371-4.996-1.656-6.807-1.325-1.868-3.267-3.368-3.984-5.544-.902-2.736.799-5.486.064-8.009-.711-2.441-3.525-4.084-5.813-4.702-3.053-.825-6.303-.615-9.382-1.336-3.988-.935-7.432-3.359-11.048-5.283s-7.836-3.399-11.764-2.235c-2.541.753-4.729 2.622-5.87 5.013a9.62 9.62 0 0 0-.203 7.717c.88 2.125 2.494 3.852 3.674 5.827 1.153 1.928 1.817 4.233.924 6.387-.662 1.596-1.85 2.814-2.396 4.467-1.407 4.257-.622 8.079 3.622 10.258 3.14 1.612 6.75 1.152 9.892 2.574 2.278 1.031 4.196 3.142 4.022 5.747-.09 1.346-.471 2.658-.6 4.001-.846 8.797 4.963 14.391 12.463 15.484 2.622.383 7.913.079 11.542-1.688 3.783-1.841 3.015-4.8 3.137-8.523.092-2.777-.092-5.555-.132-8.333z" class="B"/><g class="E"><path d="M47.635 354.292c.099.017.205.004.303-.043.105-.05 10.748-4.967 23.073 1.667.25.13.559.041.692-.209s.04-.561-.208-.694c-12.801-6.886-23.885-1.742-23.996-1.689-.255.122-.362.427-.242.683a.51.51 0 0 0 .378.285z"/><path d="M80.775 381.408a.48.48 0 0 1-.489-.458c-.88-21.446-22.414-44.129-36.851-50.322a.48.48 0 0 1-.252-.628.48.48 0 0 1 .628-.252c14.663 6.291 36.534 29.349 37.431 51.162a.48.48 0 0 1-.458.498z"/></g><path d="M89.291 78.855v.009c-.259-.153-.611-.144-.972.081l-2.008 1.288-.444 1.171c-.268.702.018 1.63.546 2.17.324.333.629.693.916 1.09.444.603 1.24.819 1.878.405l4.682-2.999c.352-.216.694-.243.953-.099l-5.551-3.116zm-7.208 16.731c-.657-3.692-3.072-5.538-6.209-5.286a9.1 9.1 0 0 1 .648 2.161c1.036 5.853-2.776 14.155-8.503 18.54-2.11 1.612-4.182 2.467-6.005 2.611 1.878 3.926 6.634 4.295 11.575.513 5.727-4.384 9.53-12.686 8.494-18.539zm.101-25.015v.009a1.21 1.21 0 0 0-.37-.144l-3.525-.774c-.75-.162-1.647.243-1.999.9l-3.322 6.159c-.157.297-.426.567-.74.819h-.009c-.176.144-.361.27-.564.369l1.036 3.359c.222.711.962 1.018 1.665.738.74-.288 1.471-.522 2.174-.693.416-.108.87-.342 1.258-.639.315-.243.592-.531.749-.828l3.313-6.159c.361-.657 1.258-1.063 1.999-.9l3.535.774a1.34 1.34 0 0 1 .352.126l-5.552-3.116zm-9.937 59.583c-.148-.117-.268-.288-.333-.522l-1.194-3.854c-.213-.711-.953-1.026-1.666-.738-.731.288-1.462.522-2.174.693-.222.054-.453.153-.685.279l.157.495c.092.288.25.486.453.594v.009l5.442 3.044zm-6.764-56.468a.83.83 0 0 0-.389-.099c-.213 0-.435.072-.648.243l-5.293 4.043c-.074.054-.139.117-.203.189-.056.045-.093.099-.139.153-.185.234-.342.513-.463.81-.019.063-.046.135-.065.198h.009c-.092.288-.157.576-.139.828l.315 4.899c.046.747-.333 1.801-.824 2.368-.87 1.009-1.684 2.071-2.452 3.161-.259.369-.694.684-1.166.873a2.23 2.23 0 0 1-.463.135c-.074.018-.148.036-.222.036a1.16 1.16 0 0 1-.305.018l-3.396-.162h-.083c-.093 0-.185.009-.278.027-.083.009-.167.027-.25.054-.009 0-.019 0-.028.009a1.77 1.77 0 0 0-.278.108c-.176.081-.342.18-.49.297-.231.189-.426.423-.546.675l-3.192 6.969c-.287.621-.046 1.324.537 1.675l3.775 2.116c.12.306.157.639.083.954a31.08 31.08 0 0 0-.592 3.323c-.083.738-.574 1.756-1.138 2.26l-.056.045-4.636 4.142c-.083.072-.157.153-.222.243-.009.018-.019.027-.028.045-.074.09-.139.189-.185.297-.296.504-.444 1.153-.352 1.666l.888 4.971c.056.315.204.54.407.675l5.542 3.107c-.194-.126-.333-.351-.389-.657l-.879-4.97c-.056-.288-.028-.63.056-.955.13-.504.389-.991.731-1.297l4.626-4.142.056-.045c.564-.504 1.055-1.522 1.147-2.26.129-1.09.324-2.206.592-3.323a1.66 1.66 0 0 0-.944-1.846l-2.748-1.134c-.703-.297-1.027-1.09-.712-1.765l3.192-6.97c.12-.252.305-.486.546-.675.398-.315.925-.522 1.406-.495l3.405.162c.315.018.657-.054.981-.189.472-.189.907-.504 1.166-.874a43.35 43.35 0 0 1 2.452-3.161c.5-.567.87-1.621.823-2.368l-.315-4.89a2.15 2.15 0 0 1 .13-.846c.167-.531.491-1.044.879-1.342l5.283-4.043c.361-.279.749-.315 1.046-.144l-5.565-3.122zm-7.93 51.957c.259-.702-.028-1.63-.555-2.17a8.8 8.8 0 0 1-.907-1.09c-.444-.612-1.24-.819-1.878-.414l-2.674 1.711-1.943 5.115c-.213.558 0 1.117.472 1.396l-.009.009 5.579 3.134c-.481-.288-.685-.846-.472-1.405l2.387-6.286z" class="N"/><path d="M52.668 113.019l-4.626 4.142c-.342.306-.601.792-.731 1.297l-5.552-3.116c.065-.252.157-.495.278-.72.046-.108.111-.207.185-.297.009-.018.019-.027.028-.045.065-.09.139-.171.222-.243l4.636-4.142 5.56 3.124zm6.921-18.541c-.324.135-.666.207-.981.189l-3.405-.162c-.481-.027-1.009.18-1.406.495l-5.561-3.125a2.45 2.45 0 0 1 .49-.297 1.77 1.77 0 0 1 .278-.108c.009-.009.018-.009.028-.009.083-.027.167-.045.25-.054.093-.018.185-.027.278-.027h.083l3.396.162c.102.009.204 0 .305-.018l.222-.036c.148-.036.296-.09.444-.144l.019.009 5.56 3.125zm35.253-12.512c-.259-.144-.601-.117-.953.108l-4.682 2.999c-.638.405-1.434.198-1.879-.414-.287-.396-.583-.756-.916-1.089-.527-.54-.814-1.468-.546-2.17l.444-1.162 2.008-1.288c.361-.225.713-.243.972-.09v-.01l5.552 3.116zm-7.106-8.28a1.34 1.34 0 0 0-.352-.126l-3.535-.774c-.74-.162-1.638.243-1.999.9l-3.313 6.159c-.157.297-.435.585-.749.828l-5.561-3.134c.314-.252.583-.522.74-.819l3.322-6.159c.352-.657 1.249-1.063 1.999-.9l3.525.774a1.21 1.21 0 0 1 .37.144v-.009l5.553 3.116zm-16.683 3.125c-.296-.171-.685-.135-1.046.144l-5.283 4.043c-.389.297-.712.81-.879 1.342l-5.561-3.116.065-.198c.12-.297.278-.576.463-.81.046-.054.083-.108.139-.153a1.33 1.33 0 0 1 .203-.189l5.293-4.043c.213-.171.435-.243.648-.243.139 0 .268.036.389.099l5.569 3.124z" class="M"/><path d="M96.163 87.634l-.88-4.972c-.13-.735-.755-.999-1.395-.589l-4.68 2.998c-.64.41-1.439.199-1.879-.412-.283-.393-.587-.755-.912-1.087-.529-.54-.814-1.47-.549-2.169l2.387-6.283c.266-.7-.125-1.399-.873-1.562l-3.528-.768c-.748-.163-1.643.241-2 .901l-3.317 6.151c-.356.66-1.261 1.283-2.004 1.467-.71.176-1.436.408-2.173.699-.711.28-1.447-.027-1.668-.742L71.5 77.413c-.221-.714-.889-.92-1.492-.459l-5.287 4.045c-.603.461-1.052 1.438-1.004 2.183l.315 4.895c.048.744-.331 1.797-.822 2.369a40.93 40.93 0 0 0-2.455 3.162c-.432.616-1.386 1.098-2.151 1.061l-3.398-.163c-.766-.037-1.639.486-1.952 1.167l-3.195 6.971a1.31 1.31 0 0 0 .711 1.763l2.745 1.14c.705.293 1.112 1.114.943 1.841-.262 1.121-.46 2.233-.589 3.326-.087.741-.581 1.754-1.145 2.259l-4.684 4.191c-.564.505-.916 1.51-.786 2.245l.88 4.972c.13.735.755.999 1.395.589l4.681-2.997c.64-.41 1.439-.199 1.879.412a9.51 9.51 0 0 0 .912 1.088c.529.54.814 1.47.549 2.169l-2.387 6.283c-.266.7.125 1.399.873 1.562l3.527.768c.748.163 1.643-.241 2-.901l3.317-6.151c.356-.66 1.261-1.283 2.004-1.467.71-.176 1.435-.408 2.173-.699.71-.28 1.447.027 1.668.742l1.193 3.853c.221.714.889.919 1.492.458l5.286-4.045c.603-.461 1.052-1.438 1.004-2.183l-.315-4.895c-.048-.744.331-1.797.823-2.369a40.63 40.63 0 0 0 2.455-3.162c.432-.616 1.386-1.098 2.151-1.061l3.399.163c.766.037 1.639-.486 1.952-1.167l3.195-6.971a1.31 1.31 0 0 0-.711-1.763l-2.746-1.14c-.705-.293-1.112-1.114-.942-1.842.262-1.121.46-2.233.588-3.325.087-.741.581-1.754 1.145-2.259l4.684-4.192c.563-.505.915-1.51.785-2.245zm-22.578 26.492c-5.73 4.384-11.215 3.19-12.251-2.666s2.769-14.158 8.499-18.541 11.214-3.191 12.251 2.666-2.769 14.157-8.499 18.541z" class="Q"/><path d="M162.527 74.641v.01c-.299-.177-.705-.166-1.121.094l-2.317 1.486-.513 1.351c-.31.811.021 1.881.63 2.504.374.384.726.8 1.057 1.257.513.696 1.431.946 2.168.468l5.403-3.46c.406-.249.801-.281 1.1-.114l-6.407-3.596zm-8.319 19.308c-.758-4.261-3.545-6.391-7.165-6.1.32.707.577 1.538.747 2.494 1.196 6.755-3.203 16.336-9.813 21.396-2.435 1.86-4.827 2.847-6.93 3.014 2.168 4.531 7.656 4.957 13.359.592 6.61-5.06 10.998-14.641 9.802-21.396zm.118-28.868v.01c-.128-.073-.267-.135-.427-.166l-4.068-.894c-.865-.187-1.901.281-2.307 1.039l-3.833 7.108c-.182.343-.491.655-.854.946h-.011c-.203.166-.416.312-.651.426l1.196 3.876c.256.821 1.111 1.174 1.922.852.854-.332 1.698-.603 2.509-.8.481-.125 1.004-.395 1.452-.738.363-.28.684-.613.865-.956l3.823-7.108c.416-.758 1.452-1.226 2.306-1.039l4.079.894c.15.031.288.083.406.145l-6.407-3.595zm-11.469 68.762c-.171-.135-.31-.333-.384-.603l-1.378-4.448c-.246-.821-1.1-1.185-1.922-.852a18.83 18.83 0 0 1-2.509.8c-.256.062-.523.177-.79.322l.182.572c.107.333.288.561.523.686v.01l6.278 3.513zm-7.806-65.167c-.139-.073-.288-.114-.449-.114-.246 0-.502.083-.747.281l-6.108 4.666c-.085.062-.16.135-.235.218-.064.052-.107.114-.16.177-.214.27-.395.592-.534.935-.021.073-.053.156-.075.229h.011c-.107.333-.182.665-.16.956l.363 5.653c.053.863-.384 2.078-.95 2.733-1.004 1.164-1.943 2.39-2.83 3.647-.299.426-.801.79-1.345 1.008-.182.073-.352.125-.534.156-.085.021-.171.042-.256.042-.117.021-.235.031-.352.021l-3.919-.187h-.096c-.107 0-.214.01-.32.031-.096.01-.192.031-.288.062-.011 0-.021 0-.032.01a1.98 1.98 0 0 0-.32.125c-.203.094-.395.208-.566.343-.267.218-.491.488-.63.779l-3.684 8.043c-.331.717-.053 1.528.619 1.933l4.357 2.442c.139.353.182.738.096 1.102a35.58 35.58 0 0 0-.683 3.835c-.096.852-.662 2.026-1.313 2.608l-.064.052-5.35 4.78a1.63 1.63 0 0 0-.256.281c-.011.021-.021.031-.032.052-.085.104-.16.218-.214.343-.342.582-.513 1.33-.406 1.923l1.025 5.736c.064.364.235.624.47.779l6.396 3.585c-.224-.146-.384-.405-.449-.759l-1.015-5.736c-.064-.333-.032-.728.064-1.102.149-.582.449-1.143.844-1.496l5.339-4.78.064-.052c.651-.582 1.217-1.756 1.324-2.608.149-1.257.374-2.546.683-3.834.192-.842-.278-1.787-1.089-2.13l-3.171-1.309c-.812-.343-1.185-1.257-.822-2.037l3.684-8.043a2.2 2.2 0 0 1 .63-.779c.459-.364 1.068-.603 1.623-.572l3.93.187a2.61 2.61 0 0 0 1.132-.218c.544-.218 1.046-.582 1.345-1.008.886-1.257 1.837-2.484 2.83-3.648.577-.655 1.004-1.871.95-2.733l-.363-5.643c-.021-.301.032-.644.149-.977.192-.613.566-1.206 1.014-1.548l6.097-4.666c.417-.322.865-.364 1.207-.166l-6.429-3.608zm-9.151 59.961c.299-.81-.032-1.881-.641-2.504a10.12 10.12 0 0 1-1.046-1.257c-.513-.707-1.431-.946-2.168-.478l-3.086 1.974-2.242 5.902c-.246.644 0 1.289.545 1.611l-.011.01 6.439 3.617c-.555-.333-.79-.977-.544-1.621l2.754-7.254z" class="N"/><path d="M120.262 114.067l-5.339 4.78c-.395.353-.694.914-.844 1.496l-6.407-3.596c.075-.291.181-.571.32-.831a1.4 1.4 0 0 1 .214-.343c.011-.021.021-.031.032-.052a1.63 1.63 0 0 1 .256-.281l5.35-4.78 6.418 3.607zm7.987-21.396a2.61 2.61 0 0 1-1.132.218l-3.93-.187c-.555-.031-1.164.208-1.623.572l-6.418-3.606c.171-.135.363-.249.566-.343.107-.052.214-.093.32-.125.011-.01.021-.01.032-.01.096-.031.192-.052.288-.062a1.66 1.66 0 0 1 .32-.031h.096l3.919.187c.118.01.235 0 .352-.021l.256-.042c.171-.042.342-.104.513-.166l.021.01 6.42 3.606zm40.684-14.44c-.299-.166-.694-.135-1.1.125l-5.403 3.46c-.737.468-1.655.229-2.168-.478-.331-.457-.673-.873-1.057-1.257-.609-.624-.94-1.694-.63-2.504l.513-1.341 2.317-1.486c.417-.26.822-.281 1.121-.104v-.01l6.407 3.595zm-8.2-9.555c-.117-.062-.256-.114-.406-.145l-4.079-.894c-.854-.187-1.89.281-2.306 1.039l-3.823 7.108c-.182.343-.502.675-.865.956l-6.418-3.616c.363-.291.673-.603.854-.946l3.833-7.108c.406-.759 1.442-1.226 2.307-1.039l4.068.894c.16.031.299.094.427.166v-.01l6.408 3.595zm-19.253 3.606c-.342-.197-.79-.156-1.207.166l-6.097 4.666c-.449.343-.822.935-1.014 1.548l-6.418-3.596.075-.229c.139-.343.32-.665.534-.935.053-.062.096-.125.16-.177.075-.083.15-.156.235-.218l6.108-4.666c.245-.198.502-.281.747-.281a.97.97 0 0 1 .449.114l6.428 3.608z" class="M"/><path d="M170.457 84.772l-1.015-5.738c-.15-.848-.871-1.152-1.61-.679l-5.401 3.459c-.739.473-1.661.229-2.168-.476a10.94 10.94 0 0 0-1.053-1.255c-.61-.623-.94-1.696-.633-2.504l2.755-7.251c.307-.807-.144-1.614-1.008-1.802l-4.071-.886c-.863-.188-1.896.278-2.307 1.04l-3.828 7.099c-.411.762-1.456 1.481-2.313 1.693-.82.203-1.657.471-2.508.806-.82.323-1.67-.032-1.925-.856l-1.376-4.446c-.255-.824-1.026-1.061-1.721-.529l-6.101 4.668c-.695.532-1.214 1.66-1.159 2.519l.364 5.649c.055.859-.382 2.073-.949 2.734-1 1.163-1.946 2.385-2.833 3.649-.499.711-1.599 1.267-2.482 1.225l-3.922-.188c-.883-.043-1.892.56-2.252 1.347l-3.688 8.045c-.36.786.007 1.697.821 2.035l3.168 1.315a1.9 1.9 0 0 1 1.088 2.125 34.73 34.73 0 0 0-.679 3.838c-.101.855-.671 2.024-1.322 2.607l-5.406 4.837c-.651.583-1.057 1.743-.907 2.591l1.015 5.738c.15.848.871 1.152 1.61.679l5.402-3.459c.739-.473 1.661-.229 2.168.476.326.453.678.872 1.053 1.255.61.624.94 1.696.633 2.504l-2.754 7.25c-.307.807.144 1.614 1.008 1.802l4.07.886c.863.188 1.896-.278 2.308-1.04l3.828-7.099c.411-.762 1.456-1.48 2.313-1.693.819-.203 1.656-.471 2.507-.806.82-.323 1.67.032 1.925.856l1.377 4.446c.255.824 1.026 1.061 1.721.529l6.1-4.667c.695-.532 1.214-1.66 1.159-2.519l-.364-5.649c-.055-.859.382-2.073.949-2.734 1-1.163 1.946-2.385 2.833-3.649.499-.711 1.599-1.267 2.482-1.225l3.922.188c.883.042 1.892-.561 2.252-1.347l3.688-8.045c.36-.786-.007-1.697-.821-2.035l-3.169-1.315c-.814-.338-1.284-1.286-1.087-2.125.302-1.293.531-2.576.679-3.837.101-.855.67-2.024 1.322-2.607l5.406-4.837c.65-.583 1.056-1.743.906-2.592zm-26.055 30.573c-6.612 5.059-12.943 3.681-14.139-3.077s3.195-16.339 9.808-21.398 12.942-3.682 14.138 3.076-3.195 16.34-9.807 21.399z" class="Q"/><path d="M55.851 213.577c.298-.58.217-1.473-.129-2.029-.773-1.23-1.417-2.616-1.924-4.159a1.02 1.02 0 0 0-1.433-.642l-2.085.916c.209.423.435.83.684 1.214.346.556.427 1.449.129 2.029l-5.739 11.264c-.298.58-.064 1.316.507 1.645l4.717 2.647c-.539-.345-.757-1.057-.467-1.621l5.74-11.264zm25.499-78.408a.65.65 0 0 0-.306-.071c-.153 0-.314.039-.475.133l-9.675 5.436-.145.094c-.048.039-.097.07-.145.117a1.94 1.94 0 0 0-.137.125 2.93 2.93 0 0 0-.249.298c-.266.345-.443.76-.475 1.128l-.974 10.473c-.056.65-.515 1.52-1.006 1.958-1.883 1.692-3.678 3.548-5.377 5.538-.418.501-1.264.736-1.899.525l-6.206-2.115c-.161-.055-.322-.078-.491-.063h-.032c-.024-.008-.048 0-.072.008-.032-.008-.064 0-.089.008-.064.008-.129.024-.185.039-.193.055-.378.141-.539.274-.04.024-.072.047-.105.086-.097.078-.169.172-.233.282l-7.115 11.984c-.153.266-.193.58-.153.877.032.345.193.681.467.909l4.982 4.183c.507.423.716 1.253.483 1.864a55.46 55.46 0 0 0-2.238 7.3c-.081.345-.282.752-.547 1.112-.048.071-.105.149-.169.212l-.161.188a3.35 3.35 0 0 1-.362.313l-8.838 6.055c-.056.039-.113.078-.161.125a1.42 1.42 0 0 0-.153.157c-.394.415-.676 1.05-.676 1.567v10.872c0 .337.137.58.346.697l4.765 2.679c-.209-.125-.346-.368-.346-.705v-10.872c0-.384.153-.83.386-1.206a2.26 2.26 0 0 1 .596-.65l8.838-6.047c.242-.164.483-.423.692-.705.257-.36.467-.775.547-1.128.563-2.428 1.32-4.872 2.238-7.292.233-.611.024-1.441-.483-1.864l-4.982-4.183c-.274-.227-.435-.564-.467-.909-.056-.305 0-.619.153-.877l7.115-11.985c.242-.407.708-.666 1.183-.697.193-.016.386 0 .563.063l6.206 2.115c.636.212 1.481-.023 1.908-.525 1.69-1.99 3.485-3.854 5.369-5.538.491-.439.95-1.308 1.006-1.958l.974-10.473a1.88 1.88 0 0 1 .177-.627c.209-.47.572-.909.974-1.136l9.675-5.436c.274-.149.531-.172.732-.094l-4.709-2.638zm-6.544 93.236c-.177-.117-.29-.329-.322-.619l-.942-9.141c-.064-.65-.644-1.026-1.296-.885-1.111.235-2.189.384-3.236.431l.716 6.932c.032.305.177.533.37.635v.008l4.71 2.639zm15.156-65.554c1.384 1.864 2.117 4.715 2.117 8.436 0 10.144-7.317 22.473-16.348 27.549-3.517 1.982-6.52 2.64-8.87 2.099 2.922 3.313 7.936 3.768 13.627.572 9.031-5.076 16.347-17.405 16.347-27.556.001-6.181-2.712-10.113-6.873-11.1zm9.409-29.225c-.58-.329-1.344-.149-1.715.392l-7.155 10.465c-.032.047-.064.086-.105.133-.048.055-.105.118-.169.165-.024.031-.056.055-.097.078-.032.031-.064.055-.097.078-.41.29-.95.462-1.409.454-.467-.016-.934-.008-1.417.023l.225 2.217c.072.65.644 1.026 1.296.885 1.618-.345 3.179-.493 4.66-.454.451.008.99-.165 1.401-.454.193-.133.354-.282.467-.454l7.156-10.473c.362-.533 1.111-.705 1.69-.392l-4.731-2.663zm13.845 19.441c-.048-.023-.105-.047-.153-.055a.97.97 0 0 0-.596.07l-6.52 2.859a11.93 11.93 0 0 1 .443.909c.129.266.241.541.346.823.032.055.056.11.064.164.121.29.225.58.322.885.024.055.04.11.056.165a1.11 1.11 0 0 0 .258.431c.04.039.08.078.121.102.024.023.056.039.08.055a.65.65 0 0 0 .249.11c.032.016.064.023.089.023.137.031.274.031.41 0v-.008c.016 0 .032-.008.04-.008.064-.016.121-.031.185-.063l8.612-3.775c.233-.11.459-.125.636-.055.048.008.089.023.121.047l-4.763-2.679z" class="N"/><g class="M"><path d="M104.104 136.289c-.58-.313-1.328-.141-1.69.392l-7.156 10.473c-.113.172-.274.321-.467.454l-4.757-2.671-.008-.008c.073-.047.145-.094.201-.149.064-.047.121-.11.169-.165l.105-.133 7.155-10.465c.37-.54 1.135-.721 1.715-.392l4.733 2.664zM53.17 190.352c-.209.282-.451.541-.692.705l-8.838 6.047c-.225.157-.427.384-.596.65l-4.741-2.663c.08-.133.169-.258.266-.368a1.42 1.42 0 0 1 .153-.157c.048-.047.105-.086.161-.125l8.838-6.055a3.17 3.17 0 0 0 .362-.313l.161-.188.161-.212h.008l4.757 2.679zm5.305-28.935c-.475.031-.942.29-1.183.697l-7.115 11.985c-.153.258-.209.572-.153.877l-4.757-2.671c-.04-.298 0-.611.153-.877l7.115-11.984a1 1 0 0 1 .233-.282c.032-.039.064-.063.105-.086.161-.133.346-.219.539-.274a1.26 1.26 0 0 1 .185-.039c.024-.008.056-.016.089-.008.024-.008.048-.016.072-.008.008-.008.016-.008.024-.008l.008.008 4.685 2.67zm27.583-23.608c-.201-.078-.459-.055-.732.094l-9.675 5.436c-.402.227-.765.666-.974 1.136l-4.749-2.671a3.06 3.06 0 0 1 .29-.501 3.07 3.07 0 0 1 .249-.298l.137-.125c.048-.047.097-.078.145-.117l.145-.094 9.675-5.436c.161-.094.322-.133.475-.133a.64.64 0 0 1 .306.071l4.708 2.638zm27.158 15.258l4.765 2.679a.27.27 0 0 0-.121-.047c-.177-.071-.402-.055-.636.055l-8.612 3.775a1.01 1.01 0 0 1-1.175-.212 1.11 1.11 0 0 1-.258-.431l-.056-.165-.322-.885a.46.46 0 0 0-.064-.164l-.346-.823-.443-.909 6.52-2.859c.217-.094.418-.11.596-.07.048.016.105.039.153.063v-.007z"/><path d="M117.981 155.746h.008v.008h-.008z"/></g><g class="Q"><path d="M118.324 167.317v-10.873c0-.649-.493-.959-1.101-.692l-8.612 3.778c-.608.267-1.233-.028-1.434-.646-.501-1.54-1.147-2.927-1.92-4.155-.348-.553-.427-1.449-.131-2.031l5.74-11.264c.296-.581.068-1.316-.509-1.64l-6.229-3.5c-.577-.324-1.345-.149-1.714.391l-7.154 10.47c-.369.54-1.206.922-1.873.905-1.48-.038-3.037.112-4.658.46-.651.14-1.225-.24-1.292-.886l-.944-9.147c-.066-.646-.589-.906-1.166-.582l-9.675 5.436c-.577.324-1.094 1.111-1.154 1.758l-.969 10.477c-.06.646-.516 1.517-1.006 1.956a57.54 57.54 0 0 0-5.375 5.536c-.425.5-1.271.738-1.901.524l-6.211-2.111c-.63-.214-1.41.068-1.743.63l-7.113 11.99a1.45 1.45 0 0 0 .311 1.785l4.984 4.179c.505.424.716 1.256.484 1.865a55.46 55.46 0 0 0-2.239 7.298c-.146.633-.692 1.452-1.238 1.825l-8.839 6.055a2.52 2.52 0 0 0-.987 1.851v10.872c0 .649.493.959 1.101.692l8.612-3.778c.608-.267 1.233.028 1.434.646.501 1.54 1.146 2.927 1.919 4.156.348.553.427 1.45.131 2.031l-5.74 11.263c-.296.581-.068 1.316.509 1.64l6.229 3.499c.577.325 1.345.149 1.714-.391l7.154-10.469c.369-.54 1.207-.922 1.874-.905 1.48.037 3.037-.112 4.658-.46.651-.14 1.225.24 1.292.886l.944 9.147c.067.646.589.906 1.166.582l9.675-5.437c.577-.324 1.094-1.111 1.154-1.758l.968-10.475c.06-.646.516-1.517 1.006-1.956 1.883-1.687 3.681-3.546 5.374-5.535a1.89 1.89 0 0 1 1.901-.525l6.211 2.11a1.54 1.54 0 0 0 1.744-.63l7.113-11.989a1.45 1.45 0 0 0-.311-1.785l-4.984-4.179c-.505-.424-.716-1.257-.484-1.865.924-2.422 1.679-4.868 2.24-7.298.146-.633.692-1.452 1.238-1.825l8.839-6.055a2.52 2.52 0 0 0 .987-1.851zM80.49 201.506c-9.027 5.072-16.346.96-16.346-9.184s7.319-22.479 16.346-27.552 16.345-.96 16.345 9.184-7.318 22.479-16.345 27.552z"/><path d="M91.572 379.286L312.436 251.77l-.028-187.602-220.837 127.5z"/></g><use href="#C" class="B"/><g class="F"><use href="#C"/></g><use href="#D" class="B"/><g opacity=".6"><use href="#D"/></g><use href="#E" class="B"/><g opacity=".6"><use href="#E"/></g><use href="#F" class="B"/><g class="F"><use href="#F"/></g><use href="#G" class="B"/><g opacity=".3"><use href="#G"/></g><use href="#H" class="B"/><g opacity=".7"><use href="#H"/></g><g class="C"><path d="M312.408 64.168l-2.978 1.718.027 184.166L91.57 375.849l.002 3.437L312.436 251.77z"/></g><path d="M154.065 287.379c-8.952 1.742-15.53 8.621-19.527 16.498-2.296 4.525-3.807 9.487-4.195 14.557-.168 2.191-.139 4.412.24 6.58.306 1.754.808 3.614 1.847 5.088 2.164 3.068 6.238 4 9.786 3.535 4.382-.573 7.917-3.188 10.803-6.398 3.284-3.653 5.861-7.98 7.666-12.541 1.749-4.419 2.855-9.273 2.283-14.042-.401-3.343-1.798-7.151-5.074-8.654-3.237-1.484-6.948.168-9.146 2.703-.712.821-1.303 1.747-1.789 2.718-.142.284.33.77.517.448 1.703-2.929 5.189-6.285 8.929-5.57 3.318.634 4.939 4.164 5.494 7.155.814 4.387.002 8.967-1.43 13.138a42.27 42.27 0 0 1-6.635 12.225c-2.564 3.282-5.749 6.379-9.833 7.589-3.358.995-7.597.801-10.189-1.832-1.186-1.205-1.775-2.883-2.15-4.5-.453-1.955-.578-3.984-.519-5.986.144-4.827 1.389-9.666 3.377-14.054 3.36-7.416 8.859-14.119 16.593-17.174a27.93 27.93 0 0 1 3.1-1.029c.214-.057.069-.496-.148-.454h0z" class="G"/><path d="M140.206 177.611c.053-.03.098-.027.135.01s.059.096.059.176v.781a.55.55 0 0 1-.059.242c-.037.081-.082.136-.135.166l-1.287.743v6.028c0 .081-.02.162-.057.242s-.084.136-.135.166l-.58.334c-.051.03-.098.027-.135-.009s-.057-.095-.057-.176v-6.028l-1.287.743c-.053.03-.098.027-.137-.009s-.057-.095-.057-.176v-.781c0-.08.02-.16.057-.242a.37.37 0 0 1 .137-.167l3.538-2.043zm1.844.806c.262-.151.498-.225.711-.223s.395.069.551.199a1.36 1.36 0 0 1 .371.555 2.71 2.71 0 0 1 .16.854l.006.249v.309.302l-.006.252c-.02.348-.074.695-.164 1.041a4.91 4.91 0 0 1-.367.976 4.2 4.2 0 0 1-.551.83 2.74 2.74 0 0 1-.711.598c-.262.151-.5.226-.711.223a.86.86 0 0 1-.551-.194c-.155-.128-.277-.311-.369-.551a2.93 2.93 0 0 1-.164-.852l-.01-.242-.004-.3.004-.311.01-.259c.016-.345.068-.691.162-1.039s.217-.675.371-.984a3.98 3.98 0 0 1 .551-.834 2.71 2.71 0 0 1 .711-.599zm.863 1.975c-.014-.218-.049-.388-.104-.506s-.123-.199-.203-.24-.17-.051-.264-.029a1.12 1.12 0 0 0-.293.12 1.66 1.66 0 0 0-.293.218c-.096.088-.184.2-.264.334a2.15 2.15 0 0 0-.205.475c-.055.181-.09.392-.104.626l-.01.227-.004.277.004.279.01.208c.014.219.049.389.104.506s.123.199.205.24.168.051.264.029a1.05 1.05 0 0 0 .293-.12 1.64 1.64 0 0 0 .293-.219 1.51 1.51 0 0 0 .264-.334 2.15 2.15 0 0 0 .203-.475c.055-.181.09-.391.104-.626a2.1 2.1 0 0 0 .008-.218v-.281-.274l-.008-.217zm5.403-7.463c.352-.203.658-.309.916-.315s.477.072.65.235.309.406.4.726.148.706.168 1.157v1.628c-.02.473-.074.923-.168 1.351a5.47 5.47 0 0 1-.396 1.186c-.17.363-.385.69-.639.979s-.555.535-.896.732l-1.801 1.04c-.053.03-.098.027-.135-.01s-.059-.095-.059-.176v-7.106a.56.56 0 0 1 .059-.242c.037-.081.082-.136.135-.166l1.766-1.019zm1.17 2.36c-.008-.229-.039-.431-.088-.603s-.125-.306-.223-.4-.221-.14-.367-.139-.324.06-.529.179l-.957.553v4.95l.994-.574c.195-.113.363-.252.506-.42a2.42 2.42 0 0 0 .357-.552c.096-.201.168-.42.219-.654a3.95 3.95 0 0 0 .088-.711v-1.629zm3.474-3.171c.262-.151.498-.225.711-.223s.395.069.549.199.279.316.371.555a2.76 2.76 0 0 1 .162.854l.006.249v.309.302l-.006.252c-.02.348-.074.695-.164 1.041s-.213.671-.369.976a4.11 4.11 0 0 1-.549.83 2.76 2.76 0 0 1-.711.598c-.262.151-.5.226-.711.223a.86.86 0 0 1-.551-.194c-.155-.128-.277-.311-.369-.551a2.93 2.93 0 0 1-.164-.852l-.01-.242-.004-.3.004-.311.01-.259c.016-.345.068-.691.162-1.039a5.15 5.15 0 0 1 .371-.984 3.98 3.98 0 0 1 .551-.834 2.71 2.71 0 0 1 .711-.599zm.863 1.975c-.014-.218-.049-.388-.104-.506s-.123-.199-.203-.24-.17-.051-.264-.029a1.12 1.12 0 0 0-.293.12 1.59 1.59 0 0 0-.293.218 1.54 1.54 0 0 0-.266.334 2.17 2.17 0 0 0-.203.475c-.055.182-.09.392-.104.626l-.01.227-.006.277.006.279.01.208c.014.219.049.389.104.506s.123.199.203.24.17.051.266.029a1.08 1.08 0 0 0 .293-.12 1.64 1.64 0 0 0 .293-.219 1.51 1.51 0 0 0 .264-.334 2.1 2.1 0 0 0 .203-.475c.055-.181.09-.391.104-.627l.008-.218v-.281-.274l-.008-.216zm-50.745 24.854c.32-.185.601-.281.844-.289s.445.039.607.145a.98.98 0 0 1 .368.442c.083.191.131.389.14.596a.47.47 0 0 1-.054.246.39.39 0 0 1-.139.163l-.5.289c-.081.047-.143.059-.183.034s-.077-.067-.111-.128a.56.56 0 0 0-.324-.291c-.145-.052-.361.005-.647.17a1.92 1.92 0 0 0-.354.265c-.111.104-.21.22-.292.345s-.149.256-.196.394a1.23 1.23 0 0 0-.072.416c0 .169.022.293.067.373s.122.128.229.143.249.005.425-.03l.658-.149c.285-.069.531-.1.738-.091s.377.065.508.169.229.255.293.452.096.447.096.747a3.64 3.64 0 0 1-.143 1.001c-.096.337-.23.658-.407.96a4.44 4.44 0 0 1-.649.854 3.95 3.95 0 0 1-.865.676c-.267.154-.521.251-.764.293s-.459.022-.647-.056a.93.93 0 0 1-.453-.414c-.114-.199-.179-.455-.193-.77a.46.46 0 0 1 .054-.245c.041-.079.087-.133.14-.163l.5-.289c.081-.047.143-.06.186-.041s.079.065.107.136a1.1 1.1 0 0 0 .121.215c.047.067.111.116.192.143s.184.028.304.005a1.56 1.56 0 0 0 .454-.19c.143-.083.281-.179.415-.289a2.13 2.13 0 0 0 .35-.367 1.91 1.91 0 0 0 .243-.426c.062-.149.093-.309.093-.477 0-.161-.033-.273-.101-.337s-.167-.094-.304-.088a2.57 2.57 0 0 0-.503.082l-.693.147a2.17 2.17 0 0 1-.625.047c-.179-.018-.327-.081-.443-.191s-.203-.266-.261-.471-.085-.473-.085-.803.047-.661.143-.996a4.27 4.27 0 0 1 .393-.941c.167-.294.365-.564.597-.813a3.16 3.16 0 0 1 .743-.603zm4.102 3.373c0 .228.039.386.118.477s.225.073.439-.05l.436-.252c.052-.03.098-.027.136.01s.058.096.058.176v.727a.56.56 0 0 1-.058.242.36.36 0 0 1-.136.166l-.529.306c-.447.258-.792.29-1.032.095s-.36-.636-.36-1.326v-2.365l-.472.272c-.053.031-.098.027-.136-.009s-.058-.095-.058-.176v-.726a.56.56 0 0 1 .058-.242c.038-.081.083-.136.136-.167l.472-.272v-1.793a.56.56 0 0 1 .058-.242c.038-.081.082-.136.135-.166l.543-.313c.053-.03.099-.027.137.009s.057.095.057.176v1.793l.922-.532c.052-.03.097-.027.136.009s.057.095.057.176v.726c0 .081-.019.161-.057.242s-.084.136-.136.167l-.922.532v2.33zm3.522-5.796c.262-.151.499-.225.711-.223a.84.84 0 0 1 .551.199 1.35 1.35 0 0 1 .371.555c.093.24.146.525.16.854l.007.249v.309.302l-.007.252c-.019.348-.073.695-.164 1.041a4.91 4.91 0 0 1-.367.976c-.156.307-.339.583-.551.83s-.449.447-.711.598-.499.226-.711.223-.396-.066-.551-.194-.277-.311-.367-.551-.146-.525-.164-.852l-.012-.242-.003-.3.003-.311.012-.259a4.76 4.76 0 0 1 .16-1.039c.093-.347.217-.675.371-.984s.339-.588.551-.835a2.8 2.8 0 0 1 .711-.598zm.865 1.976a1.51 1.51 0 0 0-.104-.506c-.055-.118-.123-.199-.204-.24s-.169-.051-.264-.029-.192.063-.293.12-.197.131-.293.218-.184.2-.264.334-.15.294-.204.475a2.79 2.79 0 0 0-.104.626l-.011.227-.004.277.004.279.011.208c.014.219.049.389.104.506s.123.199.204.24.168.051.264.029.192-.062.293-.12.197-.13.293-.219a1.48 1.48 0 0 0 .264-.334c.081-.135.149-.293.204-.475s.09-.391.104-.626l.006-.218v-.281-.274l-.006-.217zm3.486-3.058c-.285.165-.492.382-.618.649s-.189.621-.189 1.061v2.86c0 .081-.019.161-.057.242a.36.36 0 0 1-.136.166l-.543.314c-.053.03-.098.027-.137-.009s-.057-.095-.057-.176v-5.126c0-.081.019-.161.057-.242s.084-.136.137-.166l.543-.314c.052-.03.097-.027.136.009s.057.095.057.176v.253c.125-.248.257-.46.396-.636a1.93 1.93 0 0 1 .555-.462l.321-.186c.052-.03.097-.027.135.01s.058.095.058.176v.725a.56.56 0 0 1-.058.242c-.038.081-.083.136-.135.166l-.465.268zm2.38 2.719l-1.415-4.221c-.005-.02-.006-.044-.006-.073 0-.081.019-.161.057-.242s.083-.136.136-.167l.535-.309c.058-.033.107-.033.15.001s.071.076.086.126l.95 2.851.95-3.948c.014-.067.043-.142.086-.226s.093-.141.15-.174l.536-.31c.052-.03.098-.027.136.01s.058.095.058.176a.41.41 0 0 1-.008.081l-2.008 8.331c-.015.067-.042.142-.085.225s-.094.142-.15.174l-.536.31c-.052.03-.098.027-.136-.009s-.057-.095-.057-.176c0-.029.002-.056.007-.081l.564-2.349zm52.934-30.271c-.052.03-.097.027-.135-.01s-.058-.095-.058-.176v-7.106c0-.08.019-.16.058-.242s.083-.136.135-.166l.579-.334c.052-.03.098-.027.136.009s.057.096.057.176v7.106c0 .081-.019.161-.057.242s-.084.136-.136.167l-.579.334zm5.309-3.362a.56.56 0 0 1-.058.242c-.038.081-.083.136-.136.167l-.543.314c-.053.03-.098.027-.136-.01s-.057-.095-.057-.176v-2.794c0-.44-.067-.753-.2-.941s-.338-.2-.614-.041c-.253.146-.451.392-.597.74s-.218.742-.218 1.183v2.794a.58.58 0 0 1-.057.242.37.37 0 0 1-.137.167l-.543.313c-.053.03-.097.027-.136-.009s-.057-.095-.057-.176v-5.126a.55.55 0 0 1 .057-.242c.039-.081.083-.136.136-.167l.543-.314c.053-.03.098-.027.137.009s.057.095.057.176v.253a4.08 4.08 0 0 1 .436-.724c.167-.222.364-.398.593-.53.291-.168.533-.237.729-.212s.353.123.472.289.204.39.254.673.075.596.075.941v2.959zm4.751-10.146c.576-.333 1.024-.382 1.343-.148s.479.754.479 1.561-.159 1.515-.479 2.125a3.43 3.43 0 0 1-1.343 1.413l-1.144.66v2.453a.55.55 0 0 1-.057.242c-.038.081-.084.136-.137.167l-.578.334c-.053.03-.098.027-.135-.01s-.058-.095-.058-.176v-7.107c0-.08.018-.16.058-.242s.082-.136.135-.166l1.916-1.106zm-1.144 4.236l1.107-.64a1.84 1.84 0 0 0 .65-.623c.162-.258.243-.593.243-1.004s-.081-.648-.243-.712-.379-.018-.65.139l-1.107.64v2.2zm5.417-3.403a1.47 1.47 0 0 0-.618.649c-.126.267-.189.621-.189 1.061v2.86a.55.55 0 0 1-.057.242.37.37 0 0 1-.137.167l-.543.313c-.052.03-.097.027-.136-.009s-.057-.095-.057-.176v-5.126c0-.081.019-.161.057-.242s.084-.136.136-.167l.543-.313c.053-.03.098-.027.137.009s.057.095.057.176v.253a3.66 3.66 0 0 1 .396-.636c.141-.176.324-.33.554-.462l.321-.186c.053-.03.098-.027.136.01s.058.095.058.176v.726a.56.56 0 0 1-.058.242c-.038.081-.083.136-.136.166l-.464.267zm2.829-3.063c.261-.151.498-.225.71-.223s.396.069.551.199a1.35 1.35 0 0 1 .371.555 2.71 2.71 0 0 1 .161.854l.007.249v.309.302l-.007.252c-.02.348-.074.695-.164 1.041a4.89 4.89 0 0 1-.368.976c-.154.305-.338.583-.551.83a2.77 2.77 0 0 1-.71.598c-.261.151-.5.226-.712.223s-.396-.066-.55-.194-.277-.311-.368-.551-.146-.525-.164-.852l-.011-.242-.004-.3.004-.311.011-.259a4.82 4.82 0 0 1 .16-1.039c.094-.347.217-.675.372-.984a4.05 4.05 0 0 1 .55-.835c.212-.247.45-.447.712-.598zm.865 1.976c-.015-.218-.049-.388-.105-.506s-.122-.199-.203-.24a.38.38 0 0 0-.265-.029c-.096.023-.192.063-.292.12a1.69 1.69 0 0 0-.294.218c-.096.087-.184.2-.264.334a2.15 2.15 0 0 0-.204.475c-.055.181-.09.392-.104.627l-.011.227-.004.277.004.279.011.208c.014.219.049.389.104.506s.123.199.204.24.168.051.264.029.193-.062.294-.12a1.6 1.6 0 0 0 .292-.219 1.51 1.51 0 0 0 .265-.334c.081-.135.148-.293.203-.475a2.72 2.72 0 0 0 .105-.626l.007-.218v-.281-.274l-.007-.218zm3.373 2.507c.1-.058.201-.14.307-.249a1.91 1.91 0 0 0 .286-.391c.085-.152.155-.322.21-.512a2.11 2.11 0 0 0 .082-.602v-.407l-.149.3a2.93 2.93 0 0 1-.225.345c-.089.118-.191.231-.309.343a2.04 2.04 0 0 1-.396.295c-.238.138-.454.19-.646.159a.8.8 0 0 1-.493-.288c-.136-.16-.243-.372-.321-.64s-.123-.565-.133-.896l-.007-.381.007-.389a5.63 5.63 0 0 1 .133-1.05c.078-.357.186-.693.321-1.011a3.97 3.97 0 0 1 .493-.856 2.17 2.17 0 0 1 .646-.588c.147-.085.279-.139.396-.162a.87.87 0 0 1 .309-.013c.088.015.162.043.225.084s.111.084.149.128v-.253a.56.56 0 0 1 .058-.242c.038-.081.083-.136.136-.166l.543-.314c.052-.03.098-.027.136.009s.057.095.057.176v5.159c0 .887-.16 1.65-.482 2.285s-.765 1.119-1.331 1.446c-.244.141-.469.221-.676.242s-.387-.008-.54-.084-.273-.195-.363-.352-.142-.342-.151-.557c-.004-.079.014-.158.055-.24s.086-.138.139-.168l.486-.281c.066-.038.123-.036.172.005s.088.083.121.123c.062.089.146.143.253.161s.272-.035.502-.168zm-.859-3.772a4.52 4.52 0 0 0 0 .616c.029.46.124.748.286.863s.359.106.593-.029.43-.355.59-.66.251-.662.274-1.072a5.05 5.05 0 0 0 .015-.426l-.015-.41c-.023-.367-.115-.615-.274-.743s-.357-.124-.59.01-.432.354-.593.656-.256.702-.286 1.195zm5.395-4.347a1.47 1.47 0 0 0-.618.649c-.126.267-.189.621-.189 1.061v2.86a.55.55 0 0 1-.057.242.37.37 0 0 1-.137.167l-.543.313c-.052.03-.097.027-.136-.009s-.057-.095-.057-.176v-5.126c0-.081.019-.161.057-.242a.36.36 0 0 1 .136-.166l.543-.314c.053-.03.098-.027.137.009s.057.095.057.176v.253c.124-.248.256-.46.396-.636s.325-.33.554-.462l.321-.186c.053-.03.098-.027.136.01s.058.095.058.176v.726a.56.56 0 0 1-.058.242c-.038.08-.083.136-.136.166l-.464.267zm1.007.959c0-.41.041-.82.122-1.23a5.69 5.69 0 0 1 .351-1.148c.151-.355.336-.673.554-.952a2.52 2.52 0 0 1 .725-.65c.267-.154.508-.218.725-.193a.86.86 0 0 1 .554.286c.152.165.271.394.354.687a3.67 3.67 0 0 1 .126 1v.495c0 .081-.019.161-.057.242s-.084.136-.137.167l-2.386 1.377c0 .169.023.305.067.406s.106.176.183.22.164.059.265.044a.84.84 0 0 0 .307-.111 1.57 1.57 0 0 0 .371-.286c.096-.103.175-.209.236-.318l.128-.195c.034-.042.079-.079.137-.112l.571-.33c.052-.03.099-.027.139.008s.059.095.055.178c-.005.107-.043.26-.111.461s-.173.418-.311.652a4.5 4.5 0 0 1-.511.691 2.84 2.84 0 0 1-.704.571c-.266.153-.508.221-.725.204s-.402-.115-.554-.29-.27-.423-.351-.738-.123-.696-.123-1.136zm1.751-2.661c-.138.08-.256.179-.354.298a1.92 1.92 0 0 0-.247.384 2.25 2.25 0 0 0-.153.419c-.035.142-.058.27-.067.386l1.614-.932c-.01-.104-.027-.209-.054-.315a.56.56 0 0 0-.129-.256.33.33 0 0 0-.234-.105c-.099-.007-.224.034-.376.121zm4.558.24c0-.081-.017-.137-.05-.169s-.093-.045-.175-.042-.195.024-.333.06l-.528.129c-.21.048-.384.057-.521.026s-.249-.094-.333-.193a.87.87 0 0 1-.175-.399c-.033-.168-.05-.362-.05-.582s.033-.456.1-.707a3.46 3.46 0 0 1 .289-.733 3.55 3.55 0 0 1 .461-.668 2.48 2.48 0 0 1 .622-.513c.233-.135.442-.215.625-.24s.34-.01.469.049a.64.64 0 0 1 .3.283c.071.132.111.282.121.453.005.078-.013.158-.054.24s-.087.138-.14.168l-.55.317c-.071.042-.125.053-.16.032l-.118-.068c-.044-.027-.101-.04-.172-.039s-.179.043-.321.125a1.44 1.44 0 0 0-.379.317.67.67 0 0 0-.164.447c0 .08.014.141.039.18s.076.061.15.062.176-.012.307-.04l.511-.125c.425-.105.724-.059.897.137s.261.515.261.955a2.6 2.6 0 0 1-.107.706 3.44 3.44 0 0 1-.311.74 3.56 3.56 0 0 1-.501.686 2.84 2.84 0 0 1-.668.534c-.252.146-.475.228-.667.248s-.356-.005-.49-.075a.7.7 0 0 1-.307-.318c-.072-.142-.11-.3-.115-.473-.004-.079.014-.158.055-.24s.087-.138.14-.168l.55-.317c.071-.042.125-.047.16-.016l.122.105c.045.04.108.063.189.066s.202-.04.363-.133a2.12 2.12 0 0 0 .222-.15c.076-.059.148-.123.212-.193s.117-.145.16-.225a.5.5 0 0 0 .064-.239zm3.715-2.145c0-.081-.017-.137-.05-.169s-.092-.045-.175-.043-.194.024-.332.06l-.529.129c-.209.048-.384.057-.521.026a.57.57 0 0 1-.332-.193.86.86 0 0 1-.176-.399 3.12 3.12 0 0 1-.05-.581c0-.221.033-.456.101-.707s.163-.496.289-.733.279-.46.461-.667.388-.378.621-.513.442-.215.625-.24.34-.01.469.049a.63.63 0 0 1 .3.283 1.06 1.06 0 0 1 .121.453c.005.078-.013.158-.053.24s-.087.138-.14.168l-.55.317c-.072.042-.125.053-.161.032l-.118-.068c-.043-.027-.1-.04-.172-.039s-.178.042-.321.125a1.45 1.45 0 0 0-.379.317c-.11.129-.164.278-.164.447 0 .08.014.141.04.18s.076.061.149.062a1.48 1.48 0 0 0 .308-.04l.511-.125c.424-.105.723-.059.897.137s.26.515.26.955c0 .22-.035.455-.107.706a3.39 3.39 0 0 1-.311.74 3.6 3.6 0 0 1-.5.686 2.88 2.88 0 0 1-.668.534c-.252.146-.475.228-.668.248s-.355-.005-.489-.075a.69.69 0 0 1-.307-.318c-.072-.142-.11-.3-.115-.473-.005-.079.014-.158.054-.24s.087-.138.14-.168l.55-.317c.072-.041.125-.047.161-.016l.121.105c.045.04.108.063.189.066s.202-.04.364-.133a2.12 2.12 0 0 0 .222-.15c.075-.059.146-.123.211-.193a1.16 1.16 0 0 0 .161-.225.51.51 0 0 0 .063-.24zm21.759-18.608c.053-.03.098-.027.135.01s.059.096.059.176v.781a.55.55 0 0 1-.059.242c-.037.081-.082.136-.135.166l-1.287.743v6.028c0 .081-.02.162-.057.242s-.084.136-.135.166l-.58.334c-.051.03-.098.027-.135-.009s-.057-.095-.057-.176v-6.028l-1.287.743c-.053.03-.098.027-.137-.009s-.057-.095-.057-.176v-.781c0-.08.02-.16.057-.242s.084-.136.137-.166l3.538-2.044zm.021 4.827a6.41 6.41 0 0 1 .121-1.23c.082-.41.197-.792.35-1.148a4.32 4.32 0 0 1 .555-.952c.217-.279.459-.496.725-.65s.508-.218.725-.193a.87.87 0 0 1 .555.286c.152.165.269.394.353.687s.125.626.125 1v.495c0 .081-.019.161-.057.242a.37.37 0 0 1-.137.167l-2.385 1.377c0 .169.021.305.066.406s.105.176.182.22a.4.4 0 0 0 .266.044.85.85 0 0 0 .307-.111 1.55 1.55 0 0 0 .371-.286c.096-.103.174-.209.236-.318l.129-.195a.45.45 0 0 1 .137-.112l.57-.33c.053-.03.098-.027.139.008s.059.095.055.178c-.006.106-.043.26-.111.46s-.174.418-.311.652a4.44 4.44 0 0 1-.512.691 2.86 2.86 0 0 1-.703.571c-.266.154-.508.221-.725.204a.8.8 0 0 1-.555-.291c-.152-.176-.268-.423-.35-.738s-.121-.693-.121-1.134zm1.75-2.66a1.28 1.28 0 0 0-.354.298 1.87 1.87 0 0 0-.246.384 2.06 2.06 0 0 0-.154.419 2.2 2.2 0 0 0-.066.386l1.613-.932a2.16 2.16 0 0 0-.053-.315.59.59 0 0 0-.129-.256c-.06-.064-.139-.1-.236-.105s-.222.033-.375.121zm4.559.24c0-.081-.018-.137-.051-.169s-.092-.045-.174-.042-.195.024-.332.06l-.529.129c-.209.048-.385.057-.521.026s-.248-.094-.332-.193a.86.86 0 0 1-.176-.399c-.033-.168-.049-.362-.049-.582a2.67 2.67 0 0 1 .1-.707 3.49 3.49 0 0 1 .289-.733 3.53 3.53 0 0 1 .461-.667c.182-.207.387-.378.621-.513s.441-.215.625-.24.34-.01.469.049a.64.64 0 0 1 .301.283 1.06 1.06 0 0 1 .119.453c.006.078-.012.158-.053.24s-.086.138-.139.169l-.551.317c-.072.042-.125.053-.16.032l-.119-.068c-.043-.027-.1-.04-.172-.039s-.178.042-.32.125a1.45 1.45 0 0 0-.379.317.67.67 0 0 0-.164.447c0 .08.014.141.039.18s.076.061.15.062.176-.012.307-.04l.512-.125c.424-.105.723-.059.896.137s.26.515.26.955c0 .22-.035.455-.107.706a3.43 3.43 0 0 1-.309.74c-.137.244-.303.472-.502.686a2.86 2.86 0 0 1-.668.534c-.252.145-.475.228-.668.247s-.355-.005-.488-.075a.7.7 0 0 1-.307-.318 1.09 1.09 0 0 1-.115-.473c-.004-.079.014-.158.053-.24a.38.38 0 0 1 .141-.168l.549-.317c.072-.042.125-.047.162-.016l.121.105a.29.29 0 0 0 .189.066c.08.005.201-.04.363-.133.072-.042.146-.091.223-.15s.146-.123.211-.193.117-.145.16-.225a.5.5 0 0 0 .064-.24zm2.943-2.129c0 .228.039.386.119.477s.225.073.438-.05l.438-.252c.051-.03.098-.027.135.01s.057.096.057.176v.727c0 .081-.02.162-.057.242s-.084.136-.135.166l-.529.306c-.447.258-.793.29-1.033.095s-.361-.636-.361-1.326v-2.365l-.471.272c-.053.031-.098.027-.135-.009s-.059-.095-.059-.176v-.726a.55.55 0 0 1 .059-.242c.037-.081.082-.136.135-.167l.471-.272v-1.793a.56.56 0 0 1 .058-.242c.037-.081.082-.136.135-.166l.543-.313c.053-.03.098-.027.137.009s.057.095.057.176v1.793l.922-.532c.053-.03.098-.027.137.009s.057.095.057.176v.726a.58.58 0 0 1-.057.242.37.37 0 0 1-.137.167l-.922.532v2.33zm2.657-7.276c.053-.03.1-.027.137.009s.057.095.057.176v.857a.55.55 0 0 1-.057.242c-.037.081-.084.136-.137.167l-.613.354c-.053.03-.098.027-.137-.009s-.057-.095-.057-.176v-.857a.58.58 0 0 1 .057-.242.37.37 0 0 1 .137-.167l.613-.354zm.158 7.422a.58.58 0 0 1-.057.242.37.37 0 0 1-.137.167l-.543.313c-.053.03-.098.027-.135-.009s-.057-.095-.057-.176v-5.126a.55.55 0 0 1 .057-.242c.037-.081.082-.136.135-.167l.543-.313c.053-.03.098-.027.137.009s.057.095.057.176v5.126zm4.473-2.582c0 .081-.02.162-.057.242s-.084.136-.137.166l-.543.313c-.053.03-.098.027-.135-.01s-.059-.095-.059-.176v-2.794c0-.44-.066-.753-.199-.941s-.338-.2-.615-.041c-.252.146-.449.392-.596.74s-.219.742-.219 1.183v2.794a.55.55 0 0 1-.057.242.38.38 0 0 1-.135.167l-.543.313c-.053.03-.098.027-.137-.009s-.057-.095-.057-.176v-5.126a.55.55 0 0 1 .057-.242.37.37 0 0 1 .137-.167l.543-.313c.051-.03.096-.027.135.009s.057.095.057.176v.253c.125-.262.27-.504.436-.724a1.98 1.98 0 0 1 .594-.53c.291-.168.533-.237.729-.211s.354.122.473.289.203.39.254.673a5.33 5.33 0 0 1 .074.941v2.959zm2.572-.089c.1-.058.201-.14.307-.248a1.95 1.95 0 0 0 .287-.391 2.48 2.48 0 0 0 .209-.512c.057-.189.082-.39.082-.602v-.407a3.88 3.88 0 0 1-.148.3 2.93 2.93 0 0 1-.225.345c-.09.118-.191.231-.309.343a2.07 2.07 0 0 1-.396.295c-.238.138-.453.19-.646.159s-.357-.128-.492-.288-.244-.373-.322-.64-.123-.565-.133-.896l-.006-.381.006-.389c.01-.342.055-.692.133-1.05a5.58 5.58 0 0 1 .322-1.011 4.01 4.01 0 0 1 .492-.856c.193-.254.408-.451.646-.588.148-.085.279-.139.396-.162a.87.87 0 0 1 .309-.013c.088.015.162.043.225.084a.64.64 0 0 1 .148.129v-.253a.55.55 0 0 1 .059-.242c.037-.08.082-.136.135-.166l.543-.313c.053-.03.098-.027.137.009s.057.095.057.176v5.159c0 .887-.16 1.649-.483 2.285s-.766 1.119-1.332 1.446c-.244.141-.469.221-.676.242s-.387-.008-.539-.084a.86.86 0 0 1-.363-.352 1.18 1.18 0 0 1-.152-.557c-.004-.079.014-.158.055-.24s.086-.138.139-.168l.486-.281c.066-.039.123-.036.172.005s.088.083.121.123c.063.089.146.143.254.161s.273-.038.502-.171zm-.858-3.772a4.52 4.52 0 0 0 0 .616c.029.46.123.748.285.863s.359.106.594-.029.43-.354.59-.66.25-.662.273-1.072l.016-.426-.016-.41c-.023-.367-.115-.615-.273-.743s-.357-.125-.59.01-.432.354-.594.656-.255.702-.285 1.195zm32.379-23.186c.352-.203.657-.309.917-.315a.88.88 0 0 1 .65.235c.173.163.308.406.4.726s.148.706.168 1.157v1.628c-.02.473-.075.923-.168 1.351s-.225.823-.396 1.186-.385.69-.64.979-.554.535-.896.732l-1.801 1.04c-.052.03-.097.027-.135-.01s-.058-.095-.058-.176v-7.106c0-.08.018-.16.058-.242s.083-.136.135-.166l1.766-1.019zm1.171 2.36c-.009-.229-.039-.431-.089-.603s-.124-.306-.222-.4-.221-.14-.367-.139-.324.06-.53.179l-.957.553v4.95l.994-.574c.195-.113.364-.252.507-.42a2.5 2.5 0 0 0 .358-.552 3.01 3.01 0 0 0 .218-.654 4.14 4.14 0 0 0 .089-.711l-.001-1.629zm3.473-3.171c.262-.151.498-.225.71-.223s.395.069.551.199.278.316.371.555.146.525.161.854l.007.249v.309.302l-.007.252c-.019.348-.073.695-.164 1.041a4.89 4.89 0 0 1-.368.976 4.13 4.13 0 0 1-.551.83c-.213.247-.448.447-.71.598s-.5.226-.711.223-.397-.066-.551-.194-.277-.311-.368-.551-.146-.525-.164-.852l-.011-.242-.004-.3.004-.311.011-.259a4.76 4.76 0 0 1 .161-1.039c.093-.347.216-.675.371-.984s.338-.588.551-.835a2.76 2.76 0 0 1 .711-.598zm.864 1.975c-.015-.218-.049-.388-.104-.506s-.123-.199-.204-.24-.169-.051-.264-.029a1.12 1.12 0 0 0-.293.12c-.101.058-.198.131-.294.218a1.48 1.48 0 0 0-.264.334c-.081.134-.149.294-.203.475a2.69 2.69 0 0 0-.104.626l-.01.227-.005.277.005.279.01.208c.015.219.049.389.104.506s.122.199.203.24.169.051.264.029.193-.062.294-.12a1.64 1.64 0 0 0 .293-.219 1.48 1.48 0 0 0 .264-.334 2.15 2.15 0 0 0 .204-.475 2.78 2.78 0 0 0 .104-.626l.007-.218v-.281-.274l-.007-.217zm5.237.035c0 .081-.02.162-.057.242s-.084.136-.137.166l-.543.313c-.053.03-.098.027-.135-.01s-.058-.095-.058-.176v-2.794c0-.44-.067-.753-.2-.941s-.338-.2-.614-.04c-.252.146-.451.392-.597.74s-.218.742-.218 1.183v2.794c0 .081-.019.161-.057.242s-.084.136-.137.166l-.543.313c-.052.03-.097.027-.136-.009s-.057-.095-.057-.176v-5.126a.55.55 0 0 1 .057-.242c.039-.081.084-.136.136-.166l.543-.313c.053-.03.098-.027.137.009s.057.095.057.176v.253a4.08 4.08 0 0 1 .436-.724c.167-.222.364-.398.594-.53.29-.168.532-.237.728-.212a.68.68 0 0 1 .473.289c.119.166.203.39.253.673s.075.596.075.941v2.959zm.764-3.004a6.35 6.35 0 0 1 .122-1.231c.081-.41.198-.792.35-1.148a4.26 4.26 0 0 1 .554-.952 2.52 2.52 0 0 1 .725-.65c.267-.154.509-.218.725-.193a.87.87 0 0 1 .555.286c.153.166.271.394.354.687a3.67 3.67 0 0 1 .125 1v.495c0 .081-.019.161-.057.242s-.084.136-.137.166l-2.386 1.377c0 .169.022.305.067.406s.106.176.183.22.164.059.265.044a.84.84 0 0 0 .307-.111 1.57 1.57 0 0 0 .371-.286c.096-.103.175-.209.236-.318l.129-.195c.033-.042.078-.079.136-.112l.571-.33c.052-.03.099-.027.139.008s.059.095.055.178c-.005.106-.042.26-.111.461s-.173.418-.311.652-.309.464-.511.691a2.84 2.84 0 0 1-.704.571c-.267.154-.508.221-.725.204s-.401-.115-.554-.291-.27-.423-.35-.738-.123-.693-.123-1.133zm1.751-2.661c-.138.08-.256.179-.353.298a1.89 1.89 0 0 0-.247.384 2.25 2.25 0 0 0-.153.419c-.035.142-.058.27-.067.386l1.614-.932c-.01-.104-.027-.209-.054-.315a.56.56 0 0 0-.129-.256.33.33 0 0 0-.234-.105c-.1-.007-.225.034-.377.121z" class="D"/><g fill="none" stroke="#455a64" stroke-linecap="round" stroke-miterlimit="10"><path d="M128.128 179.943v164.526m36.559-185.634v164.526m48.745-192.669v164.526m48.744-192.668v164.526"/><path d="M96.823 216.778L302.796 97.86"/></g><use href="#I" class="C"/><use href="#J" class="B"/><use href="#J" class="E F"/><use href="#K" class="B"/><use href="#K" class="E F"/><use href="#K" class="C"/><use href="#L" class="B"/><use href="#L" class="E F"/><use href="#L" class="C"/><g class="D"><use href="#M"/><use href="#N"/><use href="#O"/></g><path d="M273.478 125.134v25.45l21.084-12.173v-25.45z" class="C"/><g class="B"><use href="#P"/><use href="#Q"/></g><use href="#Q" class="C"/><g class="D"><use href="#R"/><use href="#S"/><use href="#T"/></g><path d="M266.598 219.964v25.45l21.085-12.174v-25.45z" class="C"/><use href="#U" class="B"/><use href="#U" class="H"/><use href="#V" class="B"/><use href="#V" class="I"/><use href="#W" class="B"/><use href="#W" class="I"/><g class="D"><use href="#X"/><use href="#O" x="47.197" y="8.635"/><use href="#O" x="46.05" y="0.162"/></g><use href="#Y" class="C"/><use href="#Z" class="B"/><use href="#Z" class="H"/><use href="#a" class="B"/><use href="#a" class="I"/><g class="D"><use href="#X" x="-34.805" y="-17.295"/><use href="#X" x="-34.805" y="-21.882"/></g><path d="M234.018 161.391v25.451l21.085-12.174v-25.45z" class="C"/><use href="#b" class="B"/><use href="#b" class="H"/><use href="#W" x="-32.58" y="-58.572" class="B"/><use href="#W" x="-32.58" y="-58.572" class="I"/><g class="D"><use href="#c"/><use href="#c" y="-4.587"/></g><use href="#Y" x="-64.24" y="31.147" class="C"/><use href="#d" class="B"/><use href="#d" class="H"/><use href="#e" class="B"/><use href="#e" class="I"/><g class="D"><use href="#S" x="-103.335" y="111.765"/><use href="#R" x="-103.335" y="111.177"/><use href="#f"/></g><use href="#I" x="-68.366" y="-12.393" class="C"/><use href="#g" class="B"/><use href="#g" class="E F"/><use href="#L" x="-68.366" y="-12.393" class="B"/><use href="#L" x="-68.366" y="-12.393" class="E F"/><use href="#L" x="-68.366" y="-12.393" class="C"/><path d="M156.624 220.478l9.484-5.472c.474-.274.858-.079.858.434s-.384 1.151-.858 1.425l-9.484 5.472c-.474.274-.858.079-.858-.434s.384-1.151.858-1.425zm2.337-5.948l9.676-5.575c.474-.274.858-.079.858.434s-.384 1.151-.858 1.425l-9.676 5.575c-.474.274-.858.079-.858-.434s.384-1.152.858-1.425z" class="D"/><use href="#I" x="-119.695" y="104.336" class="C"/><g class="B"><use href="#U" x="-167.631" y="104.974"/><use href="#V" x="-167.631" y="104.974"/></g><use href="#V" x="-167.631" y="104.974" class="C"/><use href="#e" x="-69.989" y="94.4" class="B"/><use href="#e" x="-69.989" y="94.4" class="C"/><g class="D"><use href="#X" x="-168.841" y="103.192"/><use href="#O" x="-119.816" y="110.827"/></g><path d="M185.158 237.424v25.45l21.084-12.174v-25.449z" class="C"/><g class="B"><path d="M211.511 249.286s-1.027 1.741-4.707 3.866l-18.57 10.721-2.228-22.121 21.082-12.175 1.18 12.802c.19 2.09.493 5.13 3.243 6.907z"/><use href="#h"/></g><use href="#h" class="C"/><g class="D"><use href="#S" x="-88.32" y="116.877"/><use href="#R" x="-88.32" y="107.702"/><use href="#f" x="17.541" y="15.893"/></g><path d="M131.807 201.669v25.45l21.085-12.174v-25.45z" class="C"/><g class="B"><use href="#Z" x="-101.388" y="2.278"/><use href="#L" x="-86.855" y="-18.932"/></g><use href="#L" x="-86.855" y="-18.932" class="C"/><g class="D"><use href="#X" x="-135.924" y="-17.31"/><use href="#X" x="-135.924" y="-21.897"/><use href="#O" x="-86.899" y="-9.675"/></g><use href="#I" x="-38.564" y="54.925" class="C"/><use href="#b" x="-53.92" y="114.134" class="B"/><use href="#b" x="-53.92" y="114.134" class="E F"/><use href="#W" x="-86.5" y="55.562" class="B"/><use href="#W" x="-86.5" y="55.562" class="E F"/><use href="#W" x="-86.5" y="55.562" class="C"/><g class="D"><use href="#c" x="-53.727" y="116.428"/><use href="#X" x="-87.71" y="56.547"/><path d="M188.268 280.661l7.699-4.447c.474-.274.858-.079.858.434s-.384 1.151-.858 1.425l-7.699 4.447c-.474.274-.858.079-.858-.434s.385-1.151.858-1.425z"/></g><path d="M135.285 306.154v25.45l21.084-12.174v-25.449z" class="C"/><use href="#J" x="-83.377" y="85.554" class="B"/><use href="#J" x="-83.377" y="85.554" class="E F"/><use href="#V" x="-131.314" y="86.191" class="B"/><use href="#V" x="-131.314" y="86.191" class="E F"/><use href="#V" x="-131.314" y="86.191" class="C"/><use href="#i" class="B"/><use href="#i" class="E F"/><use href="#i" class="C"/><g class="D"><use href="#M" x="-83.377" y="85.553"/><use href="#O" x="-83.377" y="89.857"/><use href="#N" x="-83.377" y="81.25"/></g><use href="#I" x="-119.939" y="69.166" class="C"/><use href="#j" class="B"/><use href="#j" class="E F"/><use href="#K" x="-119.939" y="69.166" class="B"/><use href="#K" x="-119.939" y="69.166" class="E F"/><use href="#K" x="-119.939" y="69.166" class="C"/><use href="#W" x="-167.875" y="69.803" class="B"/><use href="#W" x="-167.875" y="69.803" class="E F"/><use href="#W" x="-167.875" y="69.803" class="C"/><g class="D"><use href="#M" x="-119.938" y="69.166"/><use href="#O" x="-119.938" y="73.47"/><use href="#O" x="-119.938" y="69.166"/></g><use href="#Y" x="-16.352" y="-47.001" class="C"/><use href="#P" x="-56.633" y="27.255" class="B"/><use href="#P" x="-56.633" y="27.255" class="E F"/><use href="#k" class="B"/><use href="#k" class="E F"/><use href="#k" class="C"/><path d="M223.172 164.66l9.484-5.472c.474-.274.858-.079.858.434s-.384 1.151-.858 1.425l-9.484 5.472c-.474.274-.858.079-.858-.434s.384-1.152.858-1.425zm2.337-5.949l9.676-5.575c.474-.274.858-.079.858.434s-.384 1.151-.858 1.425l-9.676 5.575c-.474.274-.858.079-.858-.434s.384-1.151.858-1.425z" class="D"/><use href="#Y" x="-134.473" y="27.2" class="C"/><use href="#l" class="B"/><use href="#l" class="H"/><use href="#V" x="-167.875" y="6.627" class="B"/><use href="#V" x="-167.875" y="6.627" class="I"/><use href="#m" class="B"/><use href="#m" class="I"/><g class="D"><use href="#X" x="-167.875" y="6.627"/><use href="#N" x="-120.678" y="10.958"/><use href="#N" x="-121.825" y="2.485"/></g><use href="#I" x="-40.632" y="-40.914" class="C"/><use href="#b" x="-55.988" y="18.295" class="B"/><use href="#b" x="-55.988" y="18.295" class="H"/><use href="#i" x="42.746" y="-126.467" class="B"/><use href="#i" x="42.746" y="-126.467" class="I"/><g class="D"><use href="#X" x="-89.971" y="-36.998"/><use href="#c" x="-55.988" y="13.708"/></g><use href="#Y" x="-98.889" y="49.099" class="C"/><use href="#d" x="-34.649" y="17.952" class="B"/><use href="#d" x="-34.649" y="17.952" class="H"/><use href="#e" x="-34.649" y="17.952" class="B"/><use href="#e" x="-34.649" y="17.952" class="I"/><g class="D"><use href="#S" x="-137.984" y="129.717"/><use href="#R" x="-137.984" y="129.129"/><use href="#f" x="-34.649" y="17.952"/></g><path d="M282.557 231.027v25.449l21.085-12.173v-25.45z" class="C"/><use href="#Z" x="49.361" y="31.636" class="B"/><use href="#Z" x="49.361" y="31.636" class="E F"/><use href="#n" class="B"/><use href="#n" class="E F"/><use href="#n" class="C"/><g class="D"><use href="#X" x="14.749" y="16.635"/><use href="#X" x="14.749" y="12.048"/><use href="#O" x="65.129" y="9.816"/></g><path d="M234.891 144.335c0-2.312 1.635-5.13 3.651-6.294 1.045-.604 1.987-.642 2.653-.219h0l1.672.965-.669 1.179c.001.047.012.084.012.132.001 2.312-1.633 5.13-3.651 6.294l-.771 1.34-1.9-1.099h0c-.617-.394-.997-1.185-.997-2.298z" class="G"/><use href="#o" class="K"/><path d="M287.064 228.403c0-2.312 1.635-5.13 3.651-6.294 1.045-.604 1.987-.642 2.652-.219h0l1.672.965-.669 1.179c.001.046.012.084.012.132.001 2.312-1.633 5.13-3.651 6.294l-.771 1.34-1.9-1.099h0c-.616-.393-.996-1.185-.996-2.298z" class="G"/><use href="#p" class="K"/><path d="M196.483 266.393c0-2.312 1.635-5.13 3.651-6.294 1.045-.603 1.987-.642 2.652-.219h0l1.673.965-.669 1.179c.001.046.012.084.012.132.001 2.312-1.633 5.13-3.651 6.294l-.771 1.34-1.9-1.099h0c-.617-.393-.997-1.185-.997-2.298z" class="G"/><use href="#o" x="-38.407" y="122.059" class="K"/><path d="M129.965 251.109c0-2.312 1.635-5.13 3.651-6.294 1.045-.604 1.987-.642 2.652-.219h0l1.673.965-.669 1.179c.001.046.012.084.012.132.001 2.312-1.633 5.13-3.651 6.294l-.771 1.34-1.9-1.099h0c-.617-.394-.997-1.185-.997-2.298z" class="G"/><use href="#o" x="-104.926" y="106.774" class="K"/><path d="M115.466 280.213c0-2.312 1.635-5.13 3.651-6.294 1.045-.603 1.987-.642 2.653-.219h0l1.672.965-.669 1.179c.001.047.012.084.012.132.001 2.312-1.633 5.13-3.651 6.294l-.771 1.34-1.9-1.099h0c-.617-.393-.997-1.185-.997-2.298z" class="G"/><use href="#p" x="-171.598" y="51.81" class="K"/><g class="G"><path d="M229.871 206.891c-1.957-1-3.567-2.292-4.637-4.249-.995-1.819-1.462-3.906-1.625-5.961-.323-4.08.723-8.263 2.826-11.764.598-.995 1.293-1.934 2.059-2.807.726-.827 1.63-1.536 2.307-2.395.214-.271-.176-.761-.49-.595-1.999 1.052-3.588 3.113-4.764 4.993-1.155 1.846-2.018 3.852-2.554 5.963-1.018 4.009-1.041 8.852.983 12.571 1.223 2.248 3.266 4.264 5.818 4.862.394.092.329-.489.077-.618h0z"/><path d="M225.812 181.681c-.237.005-.27.01-.097.018l.097-.018c.142-.025.281-.082.417-.129l.673-.234 1.388-.527 2.702-1.21-.786-.567a13.71 13.71 0 0 0-1.3 2.921c-.167.537-.298 1.083-.402 1.636-.11.586-.215 1.191-.171 1.787.033.451.87.601.959.107l.218-1.642c.089-.51.214-1.014.365-1.509a13.89 13.89 0 0 1 1.263-2.894c.101-.175-.047-.409-.185-.51-.174-.127-.408-.154-.601-.057l-2.465 1.138-1.229.493-1.278.471c-.49.227.023.831.432.726h0z"/><use href="#R" x="-6.263" y="28.534"/><use href="#S" x="-6.263" y="28.534"/><use href="#T" x="-6.263" y="28.534"/><use href="#R" x="-56.637" y="122.499"/><use href="#S" x="-56.637" y="122.499"/><use href="#T" x="-56.637" y="122.499"/><path d="M168.895 285.677c-.117 1.729.106 3.514.15 5.247l.087 4.984-.039 4.85-.162 5.063c.004.221.08.452.299.555l.233.109c.173.081.453.057.579-.103.516-.656.354-1.725.384-2.527l.075-2.48.047-5.334-.109-5.197c-.069-1.703-.005-3.515-.34-5.191-.112-.564-1.163-.59-1.204.024h0zm1.8 26.188c-.036-.199-.122-.375-.243-.536-.113-.151-.247-.293-.379-.425a1.65 1.65 0 0 0-.423-.311c-.331-.162-.743-.218-1.083-.044-.187.095-.326.224-.41.417-.078.177-.059.387-.007.568.089.307.257.596.458.843a1.3 1.3 0 0 0 .53.376c.235.09.473.123.716.048.036-.011.067-.036.102-.052.246-.038.475-.143.628-.359.1-.144.143-.352.111-.525z"/></g><use href="#q" class="B"/><use href="#q" class="I"/><use href="#r" class="B"/><use href="#r" class="I"/><use href="#s" class="B"/><use href="#s" class="F"/><use href="#t" class="B"/><use href="#t" class="H"/><use href="#u" class="B"/><use href="#u" class="H"/><use href="#v" class="B"/><use href="#v" class="C"/><use href="#r" x="-27.392" y="16.084" class="B"/><use href="#r" x="-27.392" y="16.084" class="C"/><use href="#s" x="-27.392" y="16.084" class="B"/><use href="#s" x="-27.392" y="16.084" opacity=".3"/><g class="B"><path d="M296.603 310.722l17.805-10.279v4.475l-17.805 10.279zm14.484-13.79h0l-13.799-6.373-17.805 10.28 17.12 7.907 15.408-8.896c.941-.545 1.851-1.464 1.796-2.67-.536.268-1.399.362-2.72-.248z"/><use href="#w"/></g><use href="#w" class="E F"/><use href="#w" class="C"/><use href="#x" class="B"/><use href="#x" class="E F"/><use href="#x" class="C"/><use href="#y" class="B"/><use href="#y" class="E F"/><use href="#y" class="H"/><use href="#t" x="-54.821" y="32.218" class="B"/><use href="#t" x="-54.821" y="32.218" class="E F"/><use href="#z" class="B"/><use href="#z" class="E F"/><use href="#AA" class="G"/><use href="#AA" class="C"/><path d="M296.445 182.831l-8.442 2.83-5.924-2.904 15.43-5.172z" class="G"/><path d="M288.003 185.661l2.701 2.387-5.924-2.903-2.701-2.388z" class="C"/><g class="J"><path d="M323.564 184.743c-3.588 1.203-7.131.268-11.344-.444-4.13-.698-7.785.515-13.444 2.412h0c-.718.241-1.596.007-2.462-.759-1.733-1.531-2.764-4.61-2.305-6.876.23-1.133.789-1.849 1.507-2.089h0c5.66-1.897 9.307-3.131 12.182-6.177 2.933-3.107 5.197-5.988 8.785-7.191l7.081 21.124z"/><path d="M323.564 184.743l.865-.29 90.746-30.409 7.86-2.635-.826-2.488-.671-2.027-1.345-4.037-.671-2.027-1.338-4.04-1.35-4.051-.826-2.488-2.536.85-96.265 32.259c-.024 0-.046.007-.065.022l-.461.154c-.024 0-.046.007-.065.022-1.268.545-2.28 1.806-2.81 3.715-.074.233-.129.476-.181.726-.243 1.212-.296 2.536-.171 3.888.122 1.394.432 2.82.894 4.196.91 2.716 2.416 5.225 4.298 6.894 1.715 1.509 3.441 2.069 4.918 1.766z"/></g><path d="M313.453 171.887c.122 1.394.432 2.82.894 4.196l105.175-35.253-1.338-4.04-1.35-4.051-.826-2.488-2.536.85-96.265 32.259c-.024 0-.046.007-.065.022l-.461.154c-.024 0-.046.007-.065.022-1.268.545-2.28 1.806-2.81 3.715-.074.233-.129.476-.181.726-.244 1.212-.297 2.536-.172 3.888z" class="L"/><path d="M416.834 132.74l-103.028 34.533c-.074.233-.129.476-.181.726-.243 1.212-.296 2.536-.171 3.888l104.721-35.101-1.341-4.046z" class="D"/><path d="M412.704 134.804c-.5 2.462-.189 5.366.716 8.07s2.41 5.214 4.294 6.88c3.767 3.329 7.631 2.034 8.631-2.893.5-2.462.189-5.366-.717-8.07s-2.41-5.214-4.294-6.88c-3.765-3.33-7.63-2.035-8.63 2.893z" class="N"/><path d="M417.568 150.48c-4.074-3.6-6.5-10.838-5.419-16.167.54-2.664 1.855-4.346 3.544-4.913l37.893-12.7 7.545 22.9-37.77 12.661c-1.69.569-3.754.02-5.793-1.781z" class="G"/><path d="M412.007 138.859l37.827-12.683c-.179-1.572-.141-3.121.151-4.544l-37.835 12.676c-.292 1.422-.315 2.971-.143 4.551z" opacity=".3" class="E"/><path d="M417.564 150.478c2.044 1.807 4.108 2.356 5.805 1.783l37.762-12.657-.001-.015c-1.669.542-3.711-.016-5.724-1.796-1.565-1.383-2.88-3.301-3.86-5.442l-37.835 12.676c.973 2.149 2.288 4.068 3.853 5.451z" class="C"/><use href="#AB" class="G"/><use href="#AB" opacity=".15"/><path d="M454.929 120.772c-1.107.355-1.968 1.445-2.326 3.176-.694 3.43.864 8.101 3.492 10.418 1.29 1.146 2.605 1.507 3.693 1.167 1.11-.348 1.978-1.44 2.333-3.178.694-3.43-.864-8.101-3.494-10.425-1.298-1.145-2.62-1.503-3.698-1.158zm.727 2.217c.752-.244 1.682-.003 2.584.801 1.843 1.626 2.935 4.907 2.446 7.298-.248 1.221-.85 1.984-1.623 2.235-.759.246-1.677-.007-2.589-.815-1.836-1.629-2.93-4.892-2.439-7.301.243-1.211.848-1.967 1.621-2.218z" class="H"/><path d="M350.237 323.068c-.421-.052-.411 1.204-.281 1.747s1.796 2.402 4.84 3.135 7.294.291 9.111.274 4.924.963 6.727 1.283 5.081-.191 6.187-1.18c.434-.387.491-.975.491-1.483.001-1.205-.102-1.451-.242-1.445l-26.833-2.331z" class="L"/><path d="M376.747 321.798l.123.721c.175 1.194.316 2.514.108 3.71-.405.886-1.436 1.339-2.259 1.563-2.172.59-3.804.412-6.161-.138-1.413-.33-2.953-.685-4.661-.641-1.877.048-4.467.298-6.331.047-1.593-.214-3.156-.448-4.609-1.144-1.227-.588-1.992-1.346-2.723-2.625-.019-2.347 1.21-3.429 2.527-4.127 1.392-.737 3.17-.882 4.743-.813 1.77.077 3.098.361 4.671.307 1.066-.036 2.18-.158 3.15-.635.462-.228.811-.913 1.036-1.362.274-.547.383-1.04.888-1.073l8.167.223c.863.109.895 3.107.977 3.695.065.461.06.951.163 1.398l.191.894z" class="D"/><g class="M"><path d="M360.817 318.301c-.116-.073-.245-.129-.38-.154-.715-.135-1.29.551-1.616 1.093-.2.333-.305.691-.415 1.061-.135.452-.208.939-.078 1.4.033.117.118.254.237.23.108-.022.141-.158.156-.267.087-.653.295-1.289.61-1.867.14-.257.242-.475.465-.672a2.07 2.07 0 0 1 .732-.424c.109-.035.591-.017.484-.231-.021-.041-.057-.072-.093-.099l-.102-.07zm2.078.078c-.33-.044-.687.034-.962.232-.326.234-.45.574-.6.927-.292.69-.535 1.716-.143 2.413.126.224.321.116.404-.078.092-.216.077-.512.113-.743.089-.546.285-1.076.504-1.581.087-.2.181-.4.317-.57a1.12 1.12 0 0 1 .33-.287c.063-.034.129-.062.198-.076.063-.013.134-.012.198-.018.005-.102-.109-.163-.208-.189a1.26 1.26 0 0 0-.151-.03zm2.116-.521c-.241.074-.464.199-.625.39-.152.18-.239.404-.308.629-.156.505-.313 1.035-.342 1.567-.021.376.036.765.226 1.09.075.129.218.26.355.203.151-.063.144-.299.162-.435.033-.251.019-.512.03-.765.039-.932.378-1.817.952-2.555.029-.037.06-.081.048-.126-.018-.068-.11-.076-.179-.067a2 2 0 0 0-.319.069z"/><path d="M358.602 318.424c-.729-.037-2.302.908-3.128 3.128s-.5 5.061-.5 5.061-2.155-.213-3.998-2.057c-.513-.513-.815-.94-.975-1.319-.142-1.477.245-2.695.878-3.4 1.109-1.235 2.775-2.013 5.369-2.063 2.91-.057 3.135.725 3.135.725l-.781-.075z"/></g><path d="M375.802 310.811l-.527 5.58c-.167.995-1.144 2.531-4.231 2.469-2.168-.044-3.349-1.293-3.632-2.389s-.174-6.971-.174-6.971l8.564 1.311zm52.362-9.364l-4.603-11.459-10.038 3.445 7.835 11.211c1.371 1.812 6.806-3.197 6.806-3.197z" class="O"/><path d="M432.727 304.624c.074.453.041.924.006 1.385l-.361 4.805c-.049.654-.113 1.256-.261 1.887-.166.708-.072 1.551-.089 2.277l-.049 2.39c-.004.312-.073.713.003 1.02.083.33-5.047 3.27-7.117 4.402-.12.068-.24.12-.375.18-1.89.742-3.36-.788-3.36-.788-1.455-3.855 1.395-6.285 1.395-6.285s.263.015.21-2.01l-.155-4.34c-.087-.908-.34-1.795-.682-2.632-.313-.766-.912-1.577-.879-2.435.026-.688.482-1.138.807-1.696.315-.54.767-.963 1.254-1.359a9.03 9.03 0 0 1 3.63-1.792c.268-.063.552-.112.814-.03.411.128.655.534.928.866.615.746 1.502 1.202 2.316 1.724s1.619 1.187 1.893 2.115a2.36 2.36 0 0 1 .072.316z" class="D"/><path d="M422.52 315.898c-.255.315-.48.638-.667.967h-.008c-.915 1.567-1.14 3.345-.72 5.317-3.622-.33-4.575-2.422-4.575-2.422s-.202-1.807 1.883-3.12a4.93 4.93 0 0 1 .788-.413.15.15 0 0 0 .037-.022c1.755-.742 3.262-.307 3.262-.307z" class="M"/><use href="#AC" class="B"/><use href="#AC" opacity=".3"/><path d="M416.549 319.759s2.639 2.13 5.67 2.475 3.183-.82 3.502-4.413.443-8.561 1.857-10.749 3.794-3.158 4.73-2.936c.192-.099 1.121.594 1.424 1.013 0 0-2.076-.26-3.969 1.592s-2.239 5.759-2.326 9.311-.243 7.668-3.072 8.101-5.835-.781-7.711-2.345c-1.079-.899-.105-2.049-.105-2.049z" class="L"/><path d="M422.735 314.577s-.378.248-.419.657.126 1.35 1.028 1.865c.382.218.71.132.094-.616s-.703-1.906-.703-1.906zm-.06-2.501s-.24.219-.257.544.581 1.661 1.247 1.958.307-.438 0-.779-.99-1.723-.99-1.723zm-.164-2.753s-.297.154-.314.445 1.349 1.315 1.776 1.281.53-.171 0-.529-1.462-1.197-1.462-1.197z" class="M"/><path d="M416.747 298.67s-21.923-32.715-22.589-35.281c-.678-2.554-4.82-29.268-4.82-29.268l-8.579 31.46c.484 2.251.766 6.232.778 8.846.012 3.474-.443 9.295-1.75 15.457-2.288 10.81-3.583 21.166-3.583 21.166-.803.551-2.684 1.114-4.694 1.027-2.786-.121-4.595-1.305-4.595-1.305l-1.531-35.943c-.339-6.718-.549-9.697-.178-14.108l1.944-25.275 3.089-35.763 35.228-2.335s2.968 5.624 3.319 20.223c.278 11.403.26 42.693.26 42.693 5.229 3.281 6.829 6.678 9.322 13.094 1.574 4.043 5.626 16.608 6.825 20.324-4.412 1.208-8.446 4.988-8.446 4.988z" class="D"/><path d="M389.308 234.23l2.979-12.771s5.077.363 11.313-4.626c0 0-.719 4.46-9.524 6.535l-2.922 12.513.918 15.507c0-.001-2.724-16.872-2.764-17.158z" class="L"/><path d="M381.949 149.741l1.489 12.814 12.469-.611-1.385-14.954zm20.189 3.892c3.886.098 7.219 1.85 8.092 5.983s-.575 15.2-1.411 21.309c-.788 5.757-1.045 7.387-4.226 7.915-2.415.401-12.356-1.027-12.356-1.027l9.901-34.18z" class="O"/><path d="M399.477 153.633c4.536-1.183 9.113 1.134 10.196 2.976s1.51 3.786.957 9.45l-1.47 13.713s-3.412 3.176-13.935-1.014l4.252-25.125z" class="B"/><path d="M407.845 160.116c-.629-3.457-5.174-7.089-9.429-6.398-.988.161-2.294.262-3.231.427.529 2.032-8.301 4.231-12.451 2.345-1.64.43-5.888 1.255-7.253 1.708-3.91 1.298-5.524 5.146-6.132 17.897l.161 34.627c9.653 4.074 19.786 4.183 25.412 3.086 11.713-2.284 13.228-7.087 13.228-7.087l-1.744-13.21c-.001 0 2.862-25.576 1.439-33.395z" fill="#ebebeb"/><path d="M375.48 158.198c-5.34.464-7.615 1.437-11.623 8.666-3.726 6.72-10.392 18.093-12.896 22.347-6.045-1.359-13.495-4.562-16.599-6.395-.832-.491-1.628-1.507-2.03-2.386-1.123-2.452-1.745-2.367-3.022-4.425-.99-1.594-1.041-2.748-1.502-2.691-.592.073-1.693.745-1.621 2.404.036.835.262 1.493.737 2.946 0 0-2.08-1.512-4.211-4.411-2.888-3.93-5.101-4.642-6.711 1.371-1.009 3.768.541 7.382 8.128 12.373 2.186 1.438 8.408 5.232 11.401 6.661 9.255 4.418 11.887 5.983 16.79 6.351 2.989.185 4.258-.885 6.524-3.445 5.087-5.747 14.553-19.782 14.553-19.782s8.04-10.61 2.082-19.584z" class="O"/><path d="M373.165 134.054s-3.113 4.584-2.759 5.035 2.646.857 2.646.857l.113-5.892z" fill="#f0997a"/><path d="M374.622 136.999c-2.045 0-3.709-1.615-3.709-3.6s1.664-3.6 3.709-3.6 3.709 1.615 3.709 3.6-1.664 3.6-3.709 3.6zm0-6.399c-1.591 0-2.884 1.255-2.884 2.799s1.294 2.8 2.884 2.8 2.884-1.256 2.884-2.8-1.294-2.799-2.884-2.799z" class="J"/><path d="M381.809 121.372c-6.3 1.29-8.119 3.977-8.712 13.689-.62 10.148.447 13.338 1.821 14.705.928.922 6.081 1.089 8.681.393 3.254-.871 10.607-3.4 14.051-8.504 4.051-6.006 5.115-14.146.778-17.485-6.104-4.699-14.055-3.323-16.619-2.798z" class="O"/><path d="M382.031 150.445l-.292-1.87s-3.031 1.694-6.459 1.421c1.202.576 4.338.74 6.751.449z" fill="#f0997a"/><g class="J"><path d="M371.259 132.647l11.201 1.407-.451.764-10.75-1.354z"/><path d="M372.709 125.395c-.14.922.017 1.888.485 2.702.818 1.425 2.542 2.308 4.216 2.16-.286.025.802 1.369.898 1.447.473.384 1.025.682 1.654.616.223 1.362.121 2.788 1.677 3.433 0 0 .996-3.751 4.254-3.28 3.279.475 3.722 4.531 1.656 6.996-2.054 2.449-3.969 1.531-3.993 1.52.191.093.256 1.288.323 1.515.207.703.489 1.402.837 2.051a9.9 9.9 0 0 0 2.948 3.354c1.042.745 2.276 1.431 3.572 1.633a7.72 7.72 0 0 0 3.495-.285c3.011-3.974 5.807-8.482 7.805-13.018.883-2.004 1.769-4.204 1.806-6.414.03-1.812-.053-3.752-1.194-5.284-.955-1.282-2.471-2.157-4.087-2.358-.216-1.996-1.686-3.727-3.506-4.679s-3.948-1.213-6.015-1.158-4.112.407-6.169.607c-4.304.417-8.478.114-12.769-.264-.151-.013-.315-.024-.445.053-.153.09-.213.274-.253.443-.664 2.763.651 5.617 3.612 6.296-.431.558-.703 1.224-.807 1.914z"/><path d="M381.572 137.893l.116-4.245c-1.208-.031-2.213.894-2.245 2.066s.921 2.147 2.129 2.179z"/></g><path d="M376.203 157.995c-5.753-.128-9.165 2.107-13.197 8.696s-7.839 14.414-7.839 14.414 5.16 6.63 11.569 7.735l10.215-15.507c0-.001 3.644-9.62-.748-15.338z" class="B"/><path d="M175.687 392.795c-2.291 5.875-4.382 13.502-7.651 24.995-3.063 10.766-3.449 18.46-.059 21.267 3.299 2.732 13.571 1.69 20.621-11.605 2.205-4.157 10.369-16.935 10.369-16.935s5.669-1.739 7.663-3.151c0 0 18.556 1.442 27.67.031s19.249-11.972 15.605-13.238c-6.553-2.278-24.216-3.876-39.163-5.567l-35.055 4.203z" class="L"/><path d="M225.552 404.639c-4.112.748-10.071-.802-13.417-1.954.449-1.803.061-3.61.061-3.61-.228 1.782-1.12 3.468-1.724 4.442l-1.412.685c-2.313 1.04-8.667 3.912-9.772 2.858-2.458-3.754-6.736-4.745-6.736-4.745 1.879 1.401 7.316 5.71 5.09 10.291l1.327-2.088s5.669-1.739 7.663-3.151c0 0 10.375.806 19.419.623l11.067-6.887c0 0-5.123-.547-11.566 3.536z" class="J"/><path d="M214.525 416.807c-1.472 1.205-3.288 2.327-4.969 2.621-.632.11-1.252.066-1.816-.081-2.066-.539-5.408-.692-6.78 3.414-1.556 4.659-6.941 6.647-8.507 9.81-.785 1.586-1.376 6.247-.825 9.156.453 2.39 5.104.856 6.935-1.939s5.644-6.411 8.147-8.487c3.999-1.998 8.477-5.003 10.38-6.208l-2.565-8.286z" class="G"/><path d="M243.242 392.227c11.939 1.382 12.041 7.776 8.814 12.432-3.477 5.018-15.624 11.434-22.176 14.794l-16.322 8.592s-4.88-4.205-4.002-8.618c6.852-4.3 16.418-17.029 27.562-18.324l6.124-8.876zm-49.878 51.04c-.537.124-1.431-.147-1.946-.552s-2.087-3.784-.904-7.785 3.994-6.437 5.366-7.756 1.925-2.889 2.491-4.875 2.16-4.403 3.2-4.634 2.546.64 2.546.64l-10.753 24.962z" class="J"/><path d="M193.364 443.267c2.27.406 4.11-1.034 5.21-2.456l3.421-4.506c1.272-1.522 2.812-3.432 4.649-4.417s3.648-1.005 3.256-2.031-1.039-2.759-1.774-3.767-2.077-.147-2.501.135.101-1.43 1.216-2.345.957-4.34 1.836-4.396l.879-.057s.232-.856-.753-1.045-2.139.563-4.686-.077-3.749 2.067-4.428 4.764-1.159 3.984-3.04 5.811-4.842 4.723-4.906 8.857.872 5.098 1.621 5.53z" class="D"/><path d="M204.169 433.88s.818-.114 1.297-1.234c.367-.857.061-2.585-.528-3.748-.241-.476-.882-.565-1.236-.165h0a.75.75 0 0 0-.095.858c.416.768 1.111 2.44.562 4.289zm-2.174 2.425s1.033-.376 1.272-1.522c0 0 .456-2.351-.568-4.099-.261-.446-.852-.551-1.194-.164h0c-.203.23-.237.559-.087.828.435.781 1.365 2.361.577 4.957zm-2.085 2.747s.962-.461 1.201-1.607c0 0 .406-2.195-.618-3.942-.261-.446-.852-.551-1.194-.164h0c-.203.23-.237.56-.087.828.435.781 1.486 2.29.698 4.885z" class="P"/><path d="M209.885 418.35c2.149-.433 5.303-1.043 6.674-2.68s4.125-3.148 7.623-.598c2.218 1.617 4.927 2.245 7.609 2.553 1.163.133 2.478.054 3.609.346 1.361.351 2.766 1.259 3.912 2.047.729.501 1.435 1.069 1.906 1.817.842 1.336.782 3.183-.146 4.461-.166.229-.359.442-.595.598-.287.19-.626.288-.966.346-1.262.215-2.288-.227-3.448-.609-.966-.318-1.954-.574-2.944-.804-2.237-.521-4.516-.922-6.805-1.129-.977-.089-3.166-.504-4.137-.663-4.346-.712-9.07 2.385-9.07 2.385l-3.222-8.07z" class="K"/><path d="M166.227 435.865c.474 4.164 5.011 6.38 15.045 4.873s34.406-15.252 34.406-15.252-.649-5.753-6.01-7.55c0 0-4.989.655-13.144 2.021a105.93 105.93 0 0 0-10.914 2.458c-5.808 7.057-11.341 3.825-13.509 6.302-3.617 4.135-5.874 7.148-5.874 7.148z" class="L"/><path d="M241.869 426.573c.508-.213 1.077-.954 1.259-1.583s-.964-3.982-4.258-6.542-6.545-3.21-8.429-3.482-3.249-1.224-4.866-2.508-4.322-2.317-5.301-1.898-1.695 2.005-1.695 2.005l23.29 14.008z" class="J"/><path d="M220.591 425.204c.996.848 2.027.448 3.201.094 1.599-.482 3.75-.143 5.96.385 1.502.359 2.874.822 4.342 1.285 1.498.472 3.179 1.443 4.518 1.625 1.952.265 3.95-1.66 3.288-3.714-.572-1.772-3.046-5.345-7.189-7.356-2.257-1.095-5.973-.952-8.503-2.875-1.695-1.288-3.785-2.766-5.949-3.046-1.279-.166-1.786.524-2.475 1.471a36.17 36.17 0 0 1-2.97 3.578c.813.977 1.901 1.722 3.105 2.128.412.139.854.249 1.171.546.214.202.35.471.48.734.182.365.358.825.117 1.155-.097.133-.247.217-.361.335-.431.448-.224 1.183.026 1.753.272.618.573 1.238 1.045 1.721a3.23 3.23 0 0 0 .194.181z" class="D"/><path d="M227.618 425.248s-.73.385-1.773-.246c-.798-.483-1.557-2.064-1.757-3.353-.082-.527.387-.973.907-.855h0a.75.75 0 0 1 .577.642c.111.868.521 2.632 2.046 3.812zm3.18.703s-1.058.297-1.921-.495c0 0-1.742-1.644-1.929-3.661-.048-.514.371-.945.874-.829h0a.72.72 0 0 1 .553.622c.103.889.269 2.714 2.423 4.363zm3.296 1.016s-1.05.187-1.913-.606c0 0-1.61-1.546-1.797-3.563-.048-.514.371-.945.874-.829h0c.299.069.519.317.553.622.103.889.129 2.727 2.283 4.376z" class="P"/><path d="M192.579 420.707s-6.737.981-11.85 4.075c0 0 5.374-5.71 13.287-6.4l-1.437 2.325z" class="J"/><use href="#AD" class="B"/><g class="I"><use href="#AD"/></g><g class="H"><path d="M200.086 424.73l-.066 1.359c.351.017.709-.055 1.032-.222l36.72-18.891c.65-.334 1.073-.991 1.108-1.72l.024-.497-38.818 19.971z"/></g><use href="#AE" class="B"/><g class="H"><use href="#AE"/></g><path d="M199.978 422.923l-11.104-7.142 34.337-17.667 11.165 7.111z" class="D"/><path d="M195.251 404.323l.205.132 5.443 3.503 10.235-5.266.213-.108-5.647-3.636z" class="L"/><path d="M195.456 404.455l5.443 3.503 10.235-5.266-5.445-3.504z" class="D"/><use href="#AF" class="B"/><g class="H"><use href="#AF"/></g><use href="#AG" class="B"/><g class="I"><use href="#AG"/></g><path d="M221.715 404.596c.336-1.542 2.041-3.529 3.808-4.438s2.927-.396 2.591 1.146-2.041 3.529-3.808 4.438-2.927.396-2.591-1.146z" class="B"/><path d="M244.906 361.691c.832-.974 2.538-1.544 3.819-1.568.847-.016 1.709-.066 2.2-.164.937-.188 1.864-.755 2.184-1.655.081-.227.12-.466.206-.691.136-.359.383-.667.539-1.018.222-.501.247-1.088.067-1.606-.07-.203-.173-.408-.143-.621.026-.184.146-.337.244-.494.427-.691.433-1.62.014-2.316-.111-.185-.251-.357-.319-.562-.142-.429.058-.893.039-1.344-.085-2.015-3.399-1.442-4.566-1.072l-2.722.834c.047-.908.024-1.773-.317-3.308-.467-2.101-2.576-2.934-2.706-1.665-.075.727.234 2.718-.487 4.46-.324.784-.835 1.312-1.292 2.785-.349 1.122-.515 1.633-2.827 4.241-2.155 2.43-11.156 10.353-11.156 10.353l-12.296-19.432c-4.232-6.988-9.819-6.008-13.456-5.783l3.347 13.878s14.775 19.671 17.586 22.696c2.741 2.949 5.008 2.98 7.31.704 2.513-2.489 10.514-11.717 14.732-16.652z" class="K"/><path d="M247.382 350.052c-.92.356-1.474 1.059-1.599 2.747-.074 1-.675 2.764-1.83 3.4 0 0 .91 0 1.473-.479s.71-.525.966-.197a1.89 1.89 0 0 0 .71.502s-.706.62-.265 1.533 2.783 1.154 4.796.344c0 0-3.208.673-3.838-.383s1.138-2.14 2.399-2.359c0 0-3.076.431-3.444-.597s.945-1.657 2.76-1.941c0 0-2.531.215-2.878-.668-.419-1.074.39-1.596.75-1.902z" class="G"/><use href="#AH" class="B"/><g class="F E"><use href="#AH"/></g><path d="M184.378 386.077c2.048-4.19 5.587-8.566 2.993-11.482s-5.563-12.556-4.781-15.71l-1.898-.648c-1.428 3.241-3.284 5.604-3.284 5.604l4.132 12.46c-1.56 4.04-3.585 9.083-5.152 15.425 5.044 3.088 10.614 4.8 15.886 5.217-5.131-1.861-9.908-6.75-7.896-10.866z" opacity=".05"/><path d="M180.571 406.725c-2.064-1.445-12.364-11.207-17.079-15.96-5.588-5.632-4.99-6.148-3.92-9.115l10.07-27.185c2.469-7.055 4.821-10.131 9.364-10.907 3.431 2.755 6.125 9.264 2.105 20.629l-9.528 19.45s5.903 8.233 9.599 11.752 4.665 4.526 6.492 5.335c2.29 1.014 5.174 1.229 6.011 2.014s4.859 5.338 5.635 6.643 2.634 3.961-.04 4.781c-2.442.749-4.415-.308-6.38-1.682-1.266-.884-2.623-2.203-2.623-2.203s-2.921.429-5.702-1.181l-4.004-2.371z" class="K"/><path d="M187.393 337.544c.828-.739-4.074-4.478-4.544-4.855-1.863-1.493-3.776-3.007-5.08-5.041-1.541-2.404-2.092-5.423-1.499-8.216s2.324-5.327 4.709-6.897a12.63 12.63 0 0 1 16.685-9.808c1.001.377 1.983.89 3.051.942.849.041 1.681-.215 2.525-.315 2.442-.289 5.001.84 6.433 2.838s1.68 4.784.622 7.004c1.104.608 2.2 2.301 1.999 3.662-.25 1.691-1.874 2.09-2.076 2.93s.858 1.348 1.413.754c0 0-.195 1.45-2.022 1.329s-3.422-2.62-3.422-2.62l-18.794 18.293z" class="J"/><path d="M204.316 311.363c2.328 1.042 4.51 4.647 4.357 14.658-.129 8.485-2.756 10.6-4.079 11.215s-3.883.266-6.373-.148l-.049 4.879s5.921 6.674 1.843 9.413c-10.409-1.949-12.619-8.903-12.619-8.903l-.047-11.554s-1.453 1.491-3.951-.75c-2.062-1.85-2.774-4.989-1.189-6.688a3.84 3.84 0 0 1 .614-.531c.908-.631 2.12-.885 3.182-.522 1.256.43 1.809 1.571 1.948 2.813.032.282.124.591.372.729.21.117.479.074.689-.044s.373-.302.537-.477a13.53 13.53 0 0 1 3.185-2.514c1.449-.724 2.889-1.452 4.271-2.303 1.97-1.213 3.776-2.62 5.18-4.48.566-.75 1.054-1.561 1.428-2.424.087-.203.887-2.286.701-2.369z" class="K"/><path d="M204.398 323.087c-.031.645.447 1.192 1.069 1.22s1.151-.472 1.182-1.118-.447-1.192-1.069-1.22-1.15.473-1.182 1.118zm-8.986.397c-.034.693.48 1.279 1.147 1.31s1.235-.507 1.268-1.2-.48-1.28-1.147-1.31-1.235.507-1.268 1.2z" class="J"/><path d="M196.669 330.288l4.281 1.387c-.346 1.275-1.585 1.999-2.767 1.615s-1.859-1.727-1.514-3.002z" fill="#b16668"/><path d="M197.28 331.214a2.15 2.15 0 0 0-.669.116c.128.897.714 1.683 1.573 1.961.428.139.862.128 1.26.003a2.17 2.17 0 0 0-2.164-2.08z" class="G"/><path d="M207.404 321.028l-2.889-1.187c.274-.84 1.224-1.193 2.022-.865s1.142 1.212.867 2.052z" class="J"/><path d="M200.617 322.4l.828 6.903 3.086-1.455zm-2.396 14.688c-2.623-.339-8.026-1.911-8.882-4.124 0 0 .29 1.392 1.91 2.818s6.956 2.948 6.956 2.948l.016-1.642z" class="G"/><defs ><path id="B" d="M79.211 346.925s1.422-16.024-3.867-29.775-14.418-23.533-24.219-26.373-19.725 4.692-10.354 13.195S67.767 322.81 71.663 348.2l7.548-1.275z"/><path id="C" d="M83.447 187.029l8.124 4.639 220.837-127.5 7.931-13.908z"/><path id="D" d="M320.339 256.588V50.224l-7.931 13.944.028 187.602z"/><path id="E" d="M83.447 187.029l8.124 4.639.001 187.618-8.124 14.071z"/><path id="F" d="M91.572 379.286L312.436 251.77l7.903 4.818L83.448 393.357z"/><path id="G" d="M320.339 50.26l-5.955-3.438-236.892 136.77 5.955 3.437z"/><path id="H" d="M77.492 183.592l5.955 3.437.001 206.328-5.955-3.437z"/><path id="I" d="M218.662 220.601v25.45l21.085-12.174v-25.449z"/><path id="J" d="M242.605 235.008l-15.143 8.739c-1.611-.779-5.483-2.44-6.501-4.415l-1.451-14.403 21.082-12.175 2.013 22.254z"/><path id="K" d="M220.962 239.331c.513 1.122 4.44 1.492 6.25.68 0 0-.596 2.69.251 3.735 0 0-1.558.054-3.959-1.511s-2.542-2.904-2.542-2.904z"/><path id="L" d="M240.594 212.756l-21.083 12.172-.002-3.906 21.085-12.174z"/><path id="M" d="M225.598 234.941l13.046-7.534c.474-.274.858-.079.858.434s-.384 1.151-.858 1.425l-13.046 7.534c-.474.274-.858.079-.858-.434s.384-1.152.858-1.425z"/><path id="N" d="M225.598 230.65l7.699-4.447c.474-.274.858-.079.858.434s-.384 1.151-.858 1.425l-7.699 4.447c-.474.274-.858.079-.858-.434s.384-1.152.858-1.425z"/><path id="O" d="M225.598 226.346l7.699-4.447c.474-.274.858-.079.858.434s-.384 1.151-.858 1.425l-7.699 4.447c-.474.274-.858.079-.858-.434s.384-1.151.858-1.425z"/><path id="P" d="M299.831 136.996s-1.027 1.741-4.707 3.866l-18.57 10.721-2.228-22.12 21.082-12.175 1.18 12.802c.19 2.09.493 5.129 3.243 6.906z"/><path id="Q" d="M295.409 117.289l-21.082 12.173-.002-3.907 21.084-12.173z"/><path id="R" d="M278.582 136.014l10.197-5.892c.474-.274.858-.079.858.434s-.384 1.151-.858 1.425l-10.197 5.892c-.474.274-.858.079-.858-.434s.384-1.152.858-1.425z"/><path id="S" d="M278.582 131.426l10.197-5.892c.474-.274.858-.079.858.434s-.384 1.151-.858 1.425l-10.197 5.892c-.474.274-.858.079-.858-.434s.384-1.151.858-1.425z"/><path id="T" d="M285.088 137.588l8.963-5.164c.474-.274.858-.079.858.434s-.384 1.151-.858 1.425l-8.963 5.164c-.474.274-.858.079-.858-.434s.384-1.152.858-1.425z"/><path id="U" d="M290.542 234.371l-15.143 8.738c-1.611-.779-5.483-2.44-6.501-4.415l-1.451-14.403 21.082-12.175 2.013 22.255z"/><path id="V" d="M268.898 238.694c.513 1.122 4.44 1.492 6.25.68 0 0-.596 2.691.251 3.735 0 0-1.558.054-3.959-1.511s-2.542-2.904-2.542-2.904z"/><path id="W" d="M288.53 212.119l-21.083 12.172-.001-3.906 21.084-12.174z"/><path id="X" d="M274.623 229.394l11.163-6.445c.474-.274.858-.079.858.434s-.384 1.151-.858 1.425l-11.163 6.445c-.474.274-.858.079-.858-.434s.384-1.151.858-1.425z"/><path id="Y" d="M233.196 199.39v25.45l21.085-12.173v-25.45z"/><path id="Z" d="M257.139 213.798l-20.867 12.041-2.228-22.12 21.082-12.175 2.013 22.254z"/><path id="a" d="M255.128 191.545l-21.083 12.173-.002-3.907 21.085-12.173z"/><path id="b" d="M257.962 175.799l-20.867 12.041-2.228-22.121 21.082-12.175 2.013 22.255z"/><path id="c" d="M240.64 174.101l11.163-6.445c.474-.274.858-.079.858.434s-.384 1.151-.858 1.425l-11.163 6.445c-.474.274-.858.079-.858-.434s.384-1.152.858-1.425z"/><path id="d" d="M195.309 242.399s-1.027 1.741-4.707 3.866l-18.57 10.721-2.228-22.121 21.082-12.175 1.18 12.802c.19 2.091.493 5.13 3.243 6.907z"/><path id="e" d="M190.888 222.692l-21.083 12.172-.002-3.906 21.085-12.173z"/><path id="f" d="M179.227 233.984l8.963-5.164c.474-.274.858-.079.858.434s-.384 1.151-.858 1.425l-8.963 5.164c-.474.274-.858.079-.858-.434s.384-1.151.858-1.425z"/><path id="g" d="M176.649 220.07s-1.027 1.741-4.707 3.865l-18.57 10.721-2.228-22.12 21.082-12.175 1.18 12.802c.19 2.09.493 5.13 3.243 6.907z"/><path id="h" d="M207.089 229.579l-21.082 12.172-.002-3.906 21.084-12.174z"/><path id="i" d="M157.216 298.309l-21.083 12.172-.001-3.906 21.084-12.173z"/><path id="j" d="M122.667 304.174l-15.143 8.739c-1.611-.779-5.483-2.44-6.501-4.415l-1.45-14.402 21.082-12.175 2.012 22.253z"/><path id="k" d="M238.776 144.544l-21.083 12.173-.001-3.907 21.084-12.173z"/><path id="l" d="M122.667 240.998l-15.143 8.739c-1.611-.779-5.483-2.44-6.501-4.415l-1.45-14.403 21.082-12.175 2.012 22.254z"/><path id="m" d="M120.655 218.746l-21.083 12.172-.001-3.907 21.084-12.173z"/><path id="n" d="M304.489 223.182l-21.083 12.172-.002-3.907 21.085-12.173z"/><path id="o" d="M243.997 141.16c.001 2.312-1.633 5.13-3.651 6.294s-3.653.233-3.653-2.079 1.635-5.13 3.651-6.294 3.652-.233 3.653 2.079z"/><path id="p" d="M296.17 225.229c.001 2.312-1.633 5.13-3.651 6.294s-3.653.233-3.653-2.079 1.634-5.13 3.651-6.294 3.652-.233 3.653 2.079z"/><path id="q" d="M306.875 284.754l17.805-10.28 17.12 9.884-17.805 10.28z"/><path id="r" d="M306.875 284.754l-2.054-1.186 17.804-10.28 2.055 1.186z"/><path id="s" d="M304.821 283.568v4.475l19.174 11.07v-4.475z"/><path id="t" d="M323.995 294.638l17.805-10.28v4.475l-17.805 10.28z"/><path id="u" d="M338.479 280.848h0l-13.799-6.374-17.805 10.28 17.12 7.907 15.408-8.896c.941-.545 1.852-1.464 1.796-2.67-.536.268-1.399.363-2.72-.247z"/><path id="v" d="M279.483 300.838l17.805-10.28 17.12 9.885-17.805 10.279z"/><path id="w" d="M252.054 316.971l17.805-10.279 17.12 9.884-17.805 10.28z"/><path id="x" d="M252.054 316.971L250 315.785l17.805-10.279 2.054 1.186z"/><path id="y" d="M250 315.785v4.475l19.174 11.071v-4.475z"/><path id="z" d="M283.658 313.065h0l-13.799-6.373-17.805 10.28 17.12 7.907 15.408-8.896c.941-.545 1.851-1.464 1.796-2.67-.536.268-1.399.363-2.72-.248z"/><path id="AA" d="M297.509 177.585l2.701 2.388-1.064 5.245-8.442 2.83-5.924-2.903-2.701-2.387z"/><path id="AB" d="M449.984 121.631c-1.081 5.328 1.345 12.566 5.419 16.166s8.253 2.2 9.334-3.128-1.345-12.566-5.419-16.166-8.253-2.2-9.334 3.128z"/><path id="AC" d="M433.733 305.15c.953.368.708 2.984.104 5.503s-.928 3.396-.623 5.491.481 3.033-.372 3.801-7.648 3.941-7.648 3.941 1.339-3.225 1.517-7.867.489-7.632 2.643-9.742 4.379-1.127 4.379-1.127z"/><path id="AD" d="M179.184 411.076l-.035.723a2.05 2.05 0 0 0 .933 1.819l18.929 12.149c.306.198.656.304 1.009.321s.709-.055 1.032-.222l36.72-18.891c.65-.334 1.073-.991 1.108-1.72l.024-.497-38.818 19.972-20.902-13.654z"/><path id="AE" d="M238.904 404.758l-20.587-13.253a1.22 1.22 0 0 0-1.217-.059l-37.771 19.436c-.185.095-.198.356-.023.469l20.78 13.381 38.818-19.974z"/><path id="AF" d="M200.647 425.059a2.42 2.42 0 0 0 2.092-.06l36.558-18.809c.643-.331 1.102-.929 1.258-1.634l5.019-23.029c.028-.131.045-.263.051-.395.031-.647-.196-1.278-.632-1.754l-37.991 19.55a1.8 1.8 0 0 0-.93 1.209l-5.425 24.922z"/><path id="AG" d="M200.086 424.731l.236.151c.104.066.213.125.325.177l5.426-24.923c.115-.521.455-.963.93-1.209l37.991-19.55c-.136-.15-.298-.283-.475-.399l-38.069 19.586a1.8 1.8 0 0 0-.93 1.209l-5.434 24.958z"/><path id="AH" d="M189.606 341.438s-10.087 1.805-11.315 2.344c9.537 6.828-.882 20.061-.882 20.061l4.132 12.46c-1.56 4.04-3.585 9.083-5.152 15.425 13.251 8.112 30.138 6.759 35.696-2.746-.884-5.803-1.188-10.949-1.126-13.362s.651-5.908.801-9.014c4.564-4.592 3.345-10.304 2.305-12.41-3.746-7.583-10.241-13.133-12.332-13.151l-12.127.393z"/></defs></svg>